<?xml version="1.0" encoding="UTF-8" standalone="no"?>
<!-- Created with Inkscape (http://www.inkscape.org/) -->

<svg
   version="1.1"
   id="svg2"
   width="2170.28"
   height="1066.6667"
   viewBox="0 0 2170.28 1066.6667"
   sodipodi:docname="SCANVIO_LOGO_18.eps"
   xmlns:inkscape="http://www.inkscape.org/namespaces/inkscape"
   xmlns:sodipodi="http://sodipodi.sourceforge.net/DTD/sodipodi-0.dtd"
   xmlns="http://www.w3.org/2000/svg"
   xmlns:svg="http://www.w3.org/2000/svg">
  <defs
     id="defs6" />
  <sodipodi:namedview
     id="namedview4"
     pagecolor="#ffffff"
     bordercolor="#000000"
     borderopacity="0.25"
     inkscape:showpageshadow="2"
     inkscape:pageopacity="0.0"
     inkscape:pagecheckerboard="0"
     inkscape:deskcolor="#d1d1d1" />
  <g
     id="g8"
     inkscape:groupmode="layer"
     inkscape:label="ink_ext_XXXXXX"
     transform="matrix(1.3333333,0,0,-1.3333333,0,1066.6667)">
    <g
       id="g10"
       transform="scale(0.1)">
      <g
         id="g12"
         transform="scale(10)">
        <g
           aria-label="scanvio"
           transform="matrix(1,0,0,-1,-1089.73,326.808)"
           id="text16"
           style="font-weight:500;font-size:248.517px;font-family:Arboria;-inkscape-font-specification:Arboria-Medium;fill:#14152c">
          <path
             d="m 110.06099,-131.90331 v 21.11424 q -9.465,-4.85385 -19.658078,-7.28077 -10.19308,-2.42693 -21.114237,-2.42693 -16.624428,0 -24.997315,5.09654 -8.251541,5.09654 -8.251541,15.28962 0,7.766159 5.945963,12.255968 5.945963,4.368463 23.905199,8.372887 l 7.64481,1.698847 q 23.783854,5.09654 33.734239,14.440197 10.07174,9.22231 10.07174,25.846738 0,18.930006 -15.04693,29.9725092 -14.925583,11.0425033 -41.13636,11.0425033 -10.921157,0 -22.813084,-2.1842314 -11.77058,-2.06288524 -24.875969,-6.3100019 V -28.03097 q 12.377312,6.431348 24.390584,9.707695 12.013273,3.155001 23.783854,3.155001 15.775005,0 24.269238,-5.339232 8.494233,-5.460579 8.494233,-15.28962 0,-9.100965 -6.188655,-13.954812 -6.06731,-4.853848 -26.817509,-9.343657 l -7.766156,-1.820193 q -20.750198,-4.368463 -29.972509,-13.348081 -9.22231,-9.100964 -9.22231,-24.875969 0,-19.172702 13.590773,-29.608472 13.590773,-10.43577 38.588089,-10.43577 12.377311,0 23.298468,1.82019 10.921153,1.8202 20.143463,5.46058 z"
             id="path38" />
          <path
             d="m 256.66489,-130.68985 v 20.87155 q -9.465,-5.21789 -19.05135,-7.76616 -9.465,-2.66961 -19.1727,-2.66961 -21.72097,0 -33.73424,13.83346 -12.01327,13.71212 -12.01327,38.588089 0,24.87597 12.01327,38.709435 12.01327,13.71212 33.73424,13.71212 9.7077,0 19.1727,-2.54827 9.58635,-2.669616 19.05135,-7.887503 v 20.6288528 q -9.34365,4.36846287 -19.41539,6.5526943 -9.95039,2.1842314 -21.23558,2.1842314 -30.70059,0 -48.78117,-19.2940445 -18.08058,-19.294044 -18.08058,-52.057516 0,-33.248859 18.20193,-52.300209 18.32327,-19.05135 50.11597,-19.05135 10.31443,0 20.14347,2.18423 9.82904,2.06289 19.05135,6.31 z"
             id="path40" />
          <path
             d="m 365.26108,-68.317905 q -27.0602,0 -37.49598,6.188655 -10.43577,6.188656 -10.43577,21.114238 0,11.891926 7.76616,18.930005 7.8875,6.916733 21.35693,6.916733 18.56596,0 29.72981,-13.105388 11.2852,-13.226735 11.2852,-35.069049 v -4.975194 z m 44.53405,-9.222311 V 0 h -22.3277 v -20.628852 q -7.64481,12.377311 -19.05135,18.3232744 -11.40655,5.8246171 -27.90963,5.8246171 -20.87154,0 -33.24885,-11.6492343 -12.25597,-11.7705802 -12.25597,-31.4286632 0,-22.93443 15.28962,-34.583664 15.41097,-11.649235 45.86886,-11.649235 h 31.30732 v -2.184231 q 0,-15.410962 -10.19308,-23.783852 -10.07174,-8.49423 -28.39501,-8.49423 -11.64923,0 -22.69174,2.79096 -11.0425,2.79096 -21.23558,8.37288 v -20.62885 q 12.25596,-4.7325 23.78385,-7.03808 11.52789,-2.42692 22.44905,-2.42692 29.48712,0 44.04866,15.28962 14.56155,15.28962 14.56155,46.354244 z"
             id="path42" />
          <path
             d="M 583.47014,-82.030025 V 0 h -22.32769 v -81.301948 q 0,-19.294042 -7.52347,-28.880392 -7.52346,-9.58635 -22.57039,-9.58635 -18.08058,0 -28.51635,11.52789 -10.43578,11.527886 -10.43578,31.428661 V 0 h -22.44904 v -135.90773 h 22.44904 v 21.11423 q 8.00885,-12.25596 18.80866,-18.32327 10.92116,-6.06731 25.11866,-6.06731 23.41982,0 35.43309,14.56154 12.01327,14.4402 12.01327,42.592515 z"
             id="path44" />
          <path
             d="m 610.04714,-135.90773 h 23.6625 l 42.47117,114.065416 42.47117,-114.065416 h 23.6625 L 691.34908,0 h -30.33654 z"
             id="path46" />
          <path
             d="m 775.91786,-135.90773 h 22.3277 V 0 h -22.3277 z m 0,-52.90694 h 22.3277 v 28.27366 h -22.3277 z"
             id="path48" />
          <path
             d="m 901.89266,-120.25407 q -17.95924,0 -28.39501,14.07615 -10.43578,13.954815 -10.43578,38.345399 0,24.390585 10.31443,38.466743 10.43577,13.954812 28.51636,13.954812 17.83789,0 28.27366,-14.076158 10.43577,-14.076158 10.43577,-38.345397 0,-24.147891 -10.43577,-38.224049 -10.43577,-14.1975 -28.27366,-14.1975 z m 0,-18.93001 q 29.12308,0 45.74751,18.93001 16.62443,18.93 16.62443,52.421549 0,33.370203 -16.62443,52.421555 -16.62443,18.9300055 -45.74751,18.9300055 -29.24444,0 -45.86886,-18.9300055 -16.50309,-19.051352 -16.50309,-52.421555 0,-33.491549 16.50309,-52.421549 16.62442,-18.93001 45.86886,-18.93001 z"
             id="path50" />
        </g>
      </g>
      <g
         id="g18"
         transform="scale(10)">
        <g
           aria-label="scanvio"
           transform="matrix(1,0,0,-1,557.98,326.808)"
           id="text22"
           style="font-weight:500;font-size:248.517px;font-family:Arboria;-inkscape-font-specification:Arboria-Medium;fill:#ffffff">
          <path
             d="m 110.06099,-131.90331 v 21.11424 q -9.465,-4.85385 -19.658078,-7.28077 -10.19308,-2.42693 -21.114237,-2.42693 -16.624428,0 -24.997315,5.09654 -8.251541,5.09654 -8.251541,15.28962 0,7.766159 5.945963,12.255968 5.945963,4.368463 23.905199,8.372887 l 7.64481,1.698847 q 23.783854,5.09654 33.734239,14.440197 10.07174,9.22231 10.07174,25.846738 0,18.930006 -15.04693,29.9725092 -14.925583,11.0425033 -41.13636,11.0425033 -10.921157,0 -22.813084,-2.1842314 -11.77058,-2.06288524 -24.875969,-6.3100019 V -28.03097 q 12.377312,6.431348 24.390584,9.707695 12.013273,3.155001 23.783854,3.155001 15.775005,0 24.269238,-5.339232 8.494233,-5.460579 8.494233,-15.28962 0,-9.100965 -6.188655,-13.954812 -6.06731,-4.853848 -26.817509,-9.343657 l -7.766156,-1.820193 q -20.750198,-4.368463 -29.972509,-13.348081 -9.22231,-9.100964 -9.22231,-24.875969 0,-19.172702 13.590773,-29.608472 13.590773,-10.43577 38.588089,-10.43577 12.377311,0 23.298468,1.82019 10.921153,1.8202 20.143463,5.46058 z"
             id="path53" />
          <path
             d="m 256.66485,-130.68985 v 20.87155 q -9.46501,-5.21789 -19.05136,-7.76616 -9.465,-2.66961 -19.17269,-2.66961 -21.72097,0 -33.73424,13.83346 -12.01328,13.71212 -12.01328,38.588089 0,24.87597 12.01328,38.709435 12.01327,13.71212 33.73424,13.71212 9.70769,0 19.17269,-2.54827 9.58635,-2.669616 19.05136,-7.887503 v 20.6288528 q -9.34366,4.36846287 -19.41539,6.5526943 -9.95039,2.1842314 -21.23559,2.1842314 -30.70058,0 -48.78117,-19.2940445 -18.08058,-19.294044 -18.08058,-52.057516 0,-33.248859 18.20193,-52.300209 18.32328,-19.05135 50.11598,-19.05135 10.31442,0 20.14346,2.18423 9.82905,2.06289 19.05136,6.31 z"
             id="path55" />
          <path
             d="m 365.26098,-68.317905 q -27.0602,0 -37.49597,6.188655 -10.43577,6.188656 -10.43577,21.114238 0,11.891926 7.76615,18.930005 7.88751,6.916733 21.35693,6.916733 18.56597,0 29.72982,-13.105388 11.2852,-13.226735 11.2852,-35.069049 v -4.975194 z m 44.53406,-9.222311 V 0 h -22.3277 v -20.628852 q -7.64481,12.377311 -19.05136,18.3232744 -11.40654,5.8246171 -27.90962,5.8246171 -20.87154,0 -33.24886,-11.6492343 -12.25596,-11.7705802 -12.25596,-31.4286632 0,-22.93443 15.28962,-34.583664 15.41097,-11.649235 45.86886,-11.649235 h 31.30732 v -2.184231 q 0,-15.410962 -10.19308,-23.783852 -10.07174,-8.49423 -28.39501,-8.49423 -11.64924,0 -22.69174,2.79096 -11.0425,2.79096 -21.23558,8.37288 v -20.62885 q 12.25596,-4.7325 23.78385,-7.03808 11.52789,-2.42692 22.44905,-2.42692 29.48712,0 44.04866,15.28962 14.56155,15.28962 14.56155,46.354244 z"
             id="path57" />
          <path
             d="M 583.47018,-82.030025 V 0 h -22.3277 v -81.301948 q 0,-19.294042 -7.52347,-28.880392 -7.52346,-9.58635 -22.57039,-9.58635 -18.08058,0 -28.51635,11.52789 -10.43578,11.527886 -10.43578,31.428661 V 0 h -22.44904 v -135.90773 h 22.44904 v 21.11423 q 8.00885,-12.25596 18.80866,-18.32327 10.92116,-6.06731 25.11866,-6.06731 23.41982,0 35.43309,14.56154 12.01328,14.4402 12.01328,42.592515 z"
             id="path59" />
          <path
             d="m 610.04714,-135.90773 h 23.6625 l 42.47117,114.065416 42.47117,-114.065416 h 23.6625 L 691.34908,0 h -30.33654 z"
             id="path61" />
          <path
             d="m 775.91792,-135.90773 h 22.3277 V 0 h -22.3277 z m 0,-52.90694 h 22.3277 v 28.27366 h -22.3277 z"
             id="path63" />
          <path
             d="m 901.89266,-120.25407 q -17.95924,0 -28.39501,14.07615 -10.43578,13.954815 -10.43578,38.345399 0,24.390585 10.31443,38.466743 10.43577,13.954812 28.51636,13.954812 17.83789,0 28.27366,-14.076158 10.43577,-14.076158 10.43577,-38.345397 0,-24.147891 -10.43577,-38.224049 -10.43577,-14.1975 -28.27366,-14.1975 z m 0,-18.93001 q 29.12308,0 45.74751,18.93001 16.62443,18.93 16.62443,52.421549 0,33.370203 -16.62443,52.421555 -16.62443,18.9300055 -45.74751,18.9300055 -29.24444,0 -45.86886,-18.9300055 -16.50309,-19.051352 -16.50309,-52.421555 0,-33.491549 16.50309,-52.421549 16.62442,-18.93001 45.86886,-18.93001 z"
             id="path65" />
        </g>
      </g>
      <path
         d="m 2020.15,5087.88 c -94.54,0 -213.37,-99.42 -339.58,-285.68 -116.83,-172.34 -333.46,-269.54 -542.96,-363.57 -260.36,-116.79 -485.172,-217.69 -485.172,-428.67 0,-184.11 174.91,-263.18 462.952,-371.53 227.11,-85.45 462.04,-173.81 568.45,-371.65 120.52,-224.02 240.08,-333.7 336.19,-309.75 184.84,46.57 346.97,551.31 346.97,1080.16 0,541.65 -133.3,991 -310.15,1045.3 -11.75,3.6 -24.04,5.39 -36.7,5.39 z m -29.19,-2258.61 c -141.17,0 -280.96,127.03 -416.38,378.77 -84.36,156.86 -297.12,236.89 -502.86,314.29 -267.083,100.48 -543.318,204.38 -543.318,487.63 0,291.25 283.864,418.65 558.458,541.84 193.69,86.94 393.97,176.81 490.99,319.99 181.45,267.69 354.91,378.7 515.4,329.25 293.62,-90.12 397.79,-683.28 397.79,-1163.85 0,-528.12 -154.44,-1128.31 -440.73,-1200.41 -19.8,-5 -39.61,-7.51 -59.35,-7.51"
         style="fill:#f3c417;fill-opacity:1;fill-rule:nonzero;stroke:none"
         id="path24" />
      <path
         d="m 2240.12,5309.94 c -99.75,0 -213.61,-62.63 -339.82,-187.24 -105.99,-104.65 -253.04,-194.68 -408.63,-289.98 -340.79,-208.7 -693.213,-424.52 -693.213,-824.42 0,-373.77 329.593,-562.67 648.333,-745.36 179.33,-102.78 348.73,-199.83 457.26,-327.68 146.44,-172.52 278.84,-238.66 393.18,-196.59 238.68,87.66 418.68,643.22 418.68,1292.31 0,657.36 -156.38,1164.4 -389.12,1261.69 -27.56,11.51 -56.51,17.27 -86.67,17.27 z m -10.24,-2707.33 c -110.59,0 -254.18,56.6 -420.43,252.4 -94.42,111.26 -254.67,203.1 -424.31,300.34 -333.16,190.92 -710.718,407.32 -710.718,852.95 0,469.4 399.778,714.2 752.448,930.2 149.35,91.45 290.46,177.84 386.33,272.48 203.44,200.79 392.28,266.9 561.37,196.13 343.16,-143.42 465.37,-804.89 465.37,-1376.13 0,-590.08 -156.43,-1282.59 -499.95,-1408.75 -31.68,-11.59 -68.56,-19.62 -110.11,-19.62"
         style="fill:#e29e20;fill-opacity:1;fill-rule:nonzero;stroke:none"
         id="path26" />
      <path
         d="m 2423.69,5554.67 c -94,0 -195.93,-36.55 -304.88,-109.52 -48.09,-32.19 -100.78,-65.84 -156.38,-101.33 C 1532.79,5069.47 944.418,4693.76 944.418,4006.63 c 0,-622.93 504.682,-953.97 910.152,-1220 97.99,-64.26 190.53,-124.94 267.69,-184.72 161.04,-124.67 308.76,-155.37 439.51,-91.27 296.22,145.3 503.11,767.92 503.11,1514.16 0,749.39 -187.75,1333.83 -478.21,1488.9 -51.18,27.32 -105.63,40.97 -162.98,40.97 z m -0.12,-3200.46 c -105.02,0 -232.14,37.3 -377.26,149.65 -73.34,56.78 -163.88,116.16 -259.75,179.06 -407.72,267.48 -966.177,633.83 -966.177,1323.71 0,755.08 647.127,1168.28 1075.307,1441.73 54.81,34.97 106.72,68.13 154.08,99.86 269.75,180.61 472.7,140.36 595.28,74.92 335.46,-179.09 543.86,-791.54 543.86,-1598.34 0,-669.32 -177.03,-1431.55 -572.51,-1625.5 -51.29,-25.17 -116.16,-45.09 -192.83,-45.09"
         style="fill:#d07936;fill-opacity:1;fill-rule:nonzero;stroke:none"
         id="path28" />
      <path
         d="m 2579.16,5821.79 c -77.53,0 -158.44,-18.5 -242.26,-55.54 -602.61,-266.2 -1246.53,-869.63 -1246.53,-1764.86 0,-920.02 679.35,-1453.44 1249.26,-1738.91 172.97,-86.57 335.64,-84.48 483.36,6.73 353.39,218.21 590.8,919.81 590.8,1745.81 0,823.06 -223.36,1500.41 -569.06,1725.59 -83.03,54.11 -171.82,81.18 -265.57,81.18 z m 5.81,-3746.57 c -98.11,0 -199.25,25.44 -300.94,76.37 -492.08,246.5 -1317.69,814.61 -1317.69,1849.8 0,954.82 682.07,1596.32 1320.41,1878.3 222.88,98.42 439.33,86.37 625.69,-35.16 385.73,-251.28 625.38,-952.3 625.38,-1829.51 0,-880.93 -254.97,-1607.64 -649.67,-1851.35 -95.38,-58.93 -197.56,-88.45 -303.18,-88.45"
         style="fill:#be5357;fill-opacity:1;fill-rule:nonzero;stroke:none"
         id="path30" />
      <path
         d="m 2721.72,6115.41 c -54.44,0 -109.98,-7.48 -166.49,-22.44 C 1915.92,5923.6 1236.4,5132.45 1236.4,3999.85 c 0,-816.46 462.82,-1821.34 1320.59,-2075.46 188.6,-55.91 368.71,-21.2 535.38,103.23 407.17,304.06 670.33,1081.76 670.33,1981.28 0,889.11 -256.25,1660.85 -652.88,1966.06 -121.43,93.48 -251.46,140.45 -388.1,140.45 z m 6.24,-4340.65 c -68.07,0 -137.05,10.18 -206.22,30.68 -700.36,207.52 -1409.38,1027.92 -1409.38,2194.41 0,1194.62 727.07,2031.79 1411.14,2213.03 233.9,61.96 462.83,13.63 661.96,-139.63 432.55,-332.89 701.27,-1123.88 701.27,-2064.35 0,-937.28 -282.71,-1754.02 -720.16,-2080.67 -136.33,-101.78 -285.26,-153.47 -438.61,-153.47"
         style="fill:#aa3380;fill-opacity:1;fill-rule:nonzero;stroke:none"
         id="path32" />
      <path
         d="m 2859.99,6429.88 c -28.34,0 -56.93,-1.72 -85.64,-5.17 -669.47,-80.83 -1392,-1030.23 -1392,-2423.08 0,-1071.55 532.48,-2299.21 1392.73,-2414.04 211.43,-28.1 413.47,41.27 602.07,206.31 446.17,390.61 734.52,1259 734.52,2212.28 0,963.05 -277.57,1807.41 -724.41,2203.52 -165.1,146.36 -342.06,220.18 -527.27,220.18 z m 3.82,-4972.26 c -34.95,0 -70.02,2.33 -105.08,7.02 -737.55,98.45 -1500.41,1074.35 -1500.41,2536.99 0,653.64 161.34,1276.84 454.29,1754.78 279.74,456.41 661.36,744.88 1046.84,791.42 249.83,30.25 495.05,-54.69 710.12,-245.31 472.58,-418.95 766.13,-1298.85 766.13,-2296.34 0,-1002.67 -297.67,-1886.11 -776.85,-2305.61 -182.91,-160.1 -386.76,-242.95 -595.04,-242.95"
         style="fill:#882b99;fill-opacity:1;fill-rule:nonzero;stroke:none"
         id="path34" />
      <path
         d="m 2994.44,6754.11 c -808.4,0 -1466.07,-1235.5 -1466.07,-2754.11 0,-1518.61 657.67,-2754.11 1466.07,-2754.11 808.41,0 1466.13,1235.5 1466.13,2754.11 0,1518.61 -657.72,2754.11 -1466.13,2754.11 z m 0,-5632.26 c -876.78,0 -1590.1,1291.13 -1590.1,2878.15 0,1587.02 713.32,2878.15 1590.1,2878.15 876.85,0 1590.17,-1291.13 1590.17,-2878.15 0,-1587.02 -713.32,-2878.15 -1590.17,-2878.15"
         style="fill:#67349b;fill-opacity:1;fill-rule:nonzero;stroke:none"
         id="path36" />
    </g>
  </g>
</svg>
