<?xml version="1.0" encoding="UTF-8"?>
<svg id="Layer_2" data-name="Layer 2" xmlns="http://www.w3.org/2000/svg" viewBox="0 0 340.97 82.45">
  <defs>
    <style>
      .cls-1 {
        fill: #0c0c33;
      }

      .cls-1, .cls-2 {
        stroke-width: 0px;
      }

      .cls-2 {
        fill: #46bfd3;
      }
    </style>
  </defs>
  <g id="Layer_1-2" data-name="Layer 1">
    <g>
      <g>
        <path class="cls-1" d="M96.56,61.77V8.91h34.39v3.42h-30.6v21h25.98v3.27h-25.98v25.16h-3.8Z"/>
        <path class="cls-1" d="M140.78,61.77V8.91h21.96c2.28,0,4.35.47,6.22,1.41,1.86.94,3.47,2.2,4.84,3.76,1.36,1.56,2.43,3.31,3.2,5.25.77,1.94,1.15,3.92,1.15,5.96,0,2.63-.52,5.09-1.56,7.37-1.04,2.28-2.49,4.19-4.35,5.73-1.86,1.54-4.03,2.48-6.51,2.83l13.18,20.55h-4.39l-12.8-19.95h-17.12v19.95h-3.8ZM144.58,38.32h18.54c2.28,0,4.27-.62,5.96-1.86,1.69-1.24,2.99-2.85,3.91-4.84.92-1.98,1.38-4.09,1.38-6.33s-.53-4.4-1.6-6.37c-1.07-1.96-2.48-3.55-4.24-4.76-1.76-1.22-3.74-1.82-5.92-1.82h-18.02v25.98Z"/>
        <path class="cls-2" d="M205.25,8.91h3.28l22.33,52.86h-4.02l-7.2-17.42h-25.54l-7.23,17.42h-4.09l22.48-52.86ZM218.34,41.22l-11.45-27.7-11.5,27.7h22.95Z"/>
        <path class="cls-2" d="M238.9,61.77V8.91h3.8v52.86h-3.8Z"/>
        <path class="cls-1" d="M255.2,8.91l18.46,29.26,18.54-29.26h4.24l-20.85,32.91v19.95h-3.8v-20.1l-20.77-32.76h4.17Z"/>
        <path class="cls-1" d="M315.36,8.91h3.28l22.33,52.86h-4.02l-7.2-17.42h-25.54l-7.23,17.42h-4.09l22.48-52.86ZM328.45,41.22l-11.45-27.7-11.5,27.7h22.95Z"/>
      </g>
      <g>
        <path class="cls-2" d="M0,71.42c.23-.82.38-2.09.93-3.17,2.34-4.63,4.79-9.2,7.21-13.78,1.64-3.1,3.31-6.18,4.92-9.29,2.98-5.77,5.91-11.57,8.9-17.33,3.74-7.19,7.4-14.43,11.32-21.52C35.5,2.33,38.96-.05,43.8,0c2.29.02,4.5.1,6.58,1.23,2.19,1.19,3.89,2.81,5.03,5.01.74,1.43,1.42,2.89,2.17,4.31.77,1.44,1.08,1.53,2.61.87.34-.14.66-.32.98-.48,5.52-2.69,11.03-5.38,16.55-8.05.52-.25,1.12-.64,1.62-.56.63.1,1.41.48,1.74.98.42.64.11,1.43-.6,1.88-.49.31-1.02.57-1.55.82-5.84,2.85-11.69,5.7-17.53,8.55-.26.13-.52.27-.79.39-.89.39-1.5.96-1.2,2.03.32,1.14,1.34,1.19,2.14.97,1.61-.43,3.19-1.01,4.71-1.7,3.65-1.68,7.25-3.46,10.88-5.19,2.11-1,4.25-1.95,6.35-2.97.82-.4,1.52-.41,2.23.19.85.72.92,1.4.14,2.24-.29.31-.65.61-1.03.79-4.89,2.29-9.81,4.53-14.69,6.84-4.16,1.97-8.27,4.02-12.41,6.03-1.64.8-3.29,1.58-4.94,2.36-.96.45-1.58,1.1-1.25,2.23.26.89,1.32,1.24,2.61.79.82-.29,1.56-.77,2.35-1.15,6.56-3.21,13.11-6.44,19.69-9.6,1.06-.51,2.24-1.29,3.4-.04.76.81.77,1.3-.09,1.99-.28.23-.61.4-.94.56-3.73,1.86-7.43,3.77-11.19,5.57-2.91,1.39-3.4,2.34-2.24,5.27,1.82,4.62,3.7,9.21,5.53,13.83,1.05,2.65,2.06,5.31,3.11,7.96,1.88,4.73-.26,9.71-5.05,11.73-5.4,2.27-11.59-.25-13.65-5.48-1.9-4.81-4.33-9.42-6.52-14.12-.92-1.99-1.87-3.97-2.71-5.99-.37-.88-.8-1.61-1.79-1.69-1.07-.08-1.47.79-1.87,1.59-2.58,5.17-5.12,10.35-7.76,15.49-3.3,6.43-6.72,12.8-10.03,19.22-2.62,5.09-6.76,7.92-12.46,7.73-5.46-.18-10.49-3.42-11.66-8.86-.12-.57-.16-1.15-.3-2.16Z"/>
        <path class="cls-2" d="M74.28,38.18c-1.32.06-2.16-.22-2.48-1.17-.32-.96.42-1.5,1.14-1.86,2.61-1.27,5.25-2.49,7.88-3.73.65-.31,1.29-.66,1.95-.95.8-.34,1.6-.73,2.44-.93.91-.22,1.93-.37,2.49.72.44.86.07,1.72-1.26,2.42-1.86.99-3.79,1.82-5.7,2.71-1.71.79-3.43,1.58-5.15,2.35-.52.23-1.09.37-1.3.43Z"/>
        <path class="cls-2" d="M77.42,26.41c.2-.23.45-.71.84-.92,2.12-1.12,4.26-2.2,6.44-3.21.47-.22,1.16-.22,1.66-.05.92.31,1.06,1.15.42,1.89-.23.27-.5.56-.82.71-2.09,1.01-4.19,2.03-6.32,2.95-.95.41-2.14-.29-2.22-1.37Z"/>
      </g>
    </g>
  </g>
</svg>