<svg width="337" height="50" viewBox="0 0 337 50" fill="none" xmlns="http://www.w3.org/2000/svg">
<path d="M120.347 9.79533C117.825 7.14764 114.666 5.94311 111.257 4.96585H111.154L93.9277 0C98.072 7.62507 100.337 16.129 100.535 24.8053C100.732 33.4816 98.8568 42.0799 95.0641 49.8857C95.071 49.904 95.071 49.9243 95.0641 49.9426L124.336 41.2268C126.452 32.9857 126.338 24.3302 124.006 16.1475C123.404 13.7269 122.155 11.5155 120.393 9.74988" fill="#0066CC"/>
<path fill-rule="evenodd" clip-rule="evenodd" d="M107.701 11.8298C112.178 24.2409 111.751 37.8926 106.508 49.9998L129.711 41.9772C131.015 36.4124 131.239 30.6492 130.371 25.0001C130.208 22.9887 129.577 21.0431 128.53 19.3184C126.405 16.1252 122.712 14.4093 118.985 13.8071L107.701 11.8298Z" fill="#18A0DA"/>
<path fill-rule="evenodd" clip-rule="evenodd" d="M119.292 20.3638L126.269 20.8638C127.757 20.88 129.221 21.2514 130.537 21.9471C131.853 22.6428 132.985 23.6427 133.837 24.8638C136.314 28.2728 136.03 38.2613 135.473 42.4545L116.564 49.9998C116.758 49.5794 116.951 49.1476 117.133 48.7271C121.004 39.7643 121.764 29.7633 119.292 20.3184" fill="#3CC8D5"/>
<path fill-rule="evenodd" clip-rule="evenodd" d="M27.2029 28.6476L24.1008 21.5908H21.8281L26.0552 31.1816L25.9189 31.4771C25.728 31.9217 25.411 32.3008 25.0071 32.5673C24.6033 32.8339 24.1301 32.9763 23.6462 32.977H23.1576V34.8634H23.6349C24.5605 34.8685 25.4691 34.6148 26.2582 34.1309C27.0473 33.647 27.6855 32.9521 28.1006 32.1248L28.1688 31.9657L32.7141 21.6022H30.3733L27.2029 28.6476Z" fill="#0066CC"/>
<path fill-rule="evenodd" clip-rule="evenodd" d="M37.6909 23.2273C37.4651 23.1063 37.275 22.9283 37.1394 22.711C37.0038 22.4937 36.9276 22.2446 36.9182 21.9886C36.9135 21.6753 36.9947 21.3667 37.153 21.0963C37.3112 20.8259 37.5405 20.6039 37.8159 20.4546C39.093 20.0605 40.4592 20.0605 41.7362 20.4546C42.0523 20.5304 42.3634 20.6253 42.668 20.7387V18.8523C41.3116 18.3996 39.8776 18.2256 38.4523 18.341C37.6488 18.4131 36.872 18.6656 36.1796 19.0796C35.5489 19.4676 35.056 20.044 34.7706 20.7273C34.5835 21.1952 34.5136 21.7018 34.5671 22.2029C34.6206 22.7039 34.7958 23.1844 35.0774 23.6023C35.4485 24.1517 35.9426 24.6069 36.5205 24.9318C37.0605 25.2166 37.6382 25.4232 38.2364 25.5454C39.2334 25.6939 40.1528 26.1696 40.8499 26.8977C41.0292 27.129 41.1339 27.4094 41.1501 27.7017C41.1664 27.9939 41.0934 28.2842 40.9408 28.534C40.6728 28.9369 40.2699 29.231 39.8045 29.3635C39.3405 29.485 38.8636 29.5499 38.3841 29.5567C37.0465 29.5939 35.7116 29.4175 34.4297 29.034V30.9999C36.7023 31.6362 40.1113 31.9317 42.0544 30.409C42.7076 29.8821 43.1543 29.1417 43.3157 28.3181C43.4585 27.6859 43.4111 27.0257 43.1794 26.4204C42.1567 23.8409 39.6568 24.4091 37.6568 23.2613" fill="#0066CC"/>
<path fill-rule="evenodd" clip-rule="evenodd" d="M50.3943 21.3638C49.2908 21.4983 48.2714 22.0221 47.5194 22.841V18.4661H45.1445V31.2159H47.4967V24.841C47.9481 24.0565 48.6657 23.4599 49.5194 23.1592C49.7784 23.0276 50.067 22.9654 50.3573 22.9785C50.6475 22.9917 50.9293 23.0798 51.1754 23.2343C51.4214 23.3888 51.6232 23.6044 51.7611 23.8601C51.8991 24.1157 51.9684 24.4028 51.9625 24.6933V31.2045H54.3146V24.5796C54.3042 24.097 54.1893 23.6223 53.9778 23.1884C53.7664 22.7544 53.4634 22.3714 53.0897 22.0658C52.7161 21.7602 52.2806 21.5391 51.8133 21.4179C51.3461 21.2967 50.8581 21.2783 50.383 21.3638" fill="#0066CC"/>
<path fill-rule="evenodd" clip-rule="evenodd" d="M9.92007 22.1482C9.86447 21.1444 9.4232 20.201 8.68843 19.5149C7.95366 18.8288 6.98223 18.4531 5.97704 18.4664H0V31.2162H2.27264V20.2846H5.37479C5.91425 20.2846 6.4316 20.4989 6.81306 20.8803C7.19451 21.2618 7.4088 21.7792 7.4088 22.3186C7.4088 22.8581 7.19451 23.3755 6.81306 23.7569C6.4316 24.1384 5.91425 24.3527 5.37479 24.3527H3.49986C3.46859 24.35 3.43719 24.356 3.40912 24.3701C3.38105 24.3841 3.3574 24.4056 3.34078 24.4322C3.32685 24.4585 3.31957 24.4878 3.31957 24.5175C3.31957 24.5472 3.32685 24.5764 3.34078 24.6027L8.10196 31.2162H10.8291L6.8861 25.705C7.71802 25.5395 8.46991 25.0985 9.02039 24.4532C9.57087 23.8078 9.88782 22.9958 9.92007 22.1482Z" fill="#0066CC"/>
<path fill-rule="evenodd" clip-rule="evenodd" d="M83.7811 21.3743C82.6416 21.3767 81.5372 21.769 80.6516 22.4863C79.7661 23.2035 79.1528 24.2023 78.9137 25.3165C78.6747 26.4307 78.8243 27.5932 79.3377 28.6105C79.8512 29.6279 80.6974 30.4388 81.7357 30.9083C82.7425 31.279 83.8189 31.4224 84.8876 31.3281C85.9563 31.2338 86.991 30.9041 87.9173 30.3629L87.1901 28.9879C86.7458 29.2571 86.2683 29.4672 85.7697 29.6129C84.0197 30.0788 82.3607 29.8856 81.4516 28.3061C81.2665 27.9478 81.1326 27.5653 81.0539 27.1697H88.7582C88.8044 26.911 88.8272 26.6485 88.8264 26.3856C88.8294 25.7238 88.7008 25.068 88.4479 24.4564C88.195 23.8448 87.8229 23.2896 87.3534 22.8232C86.8838 22.3568 86.3261 21.9885 85.7128 21.7398C85.0995 21.491 84.4429 21.3668 83.7811 21.3743ZM81.0539 25.6243C81.0539 24.8919 81.3448 24.1896 81.8627 23.6717C82.3805 23.1539 83.0829 22.863 83.8152 22.863C84.5475 22.863 85.2499 23.1539 85.7677 23.6717C86.2855 24.1896 86.5764 24.8919 86.5764 25.6243H81.0539Z" fill="#0066CC"/>
<path fill-rule="evenodd" clip-rule="evenodd" d="M72.8734 21.3746C72.237 21.3781 71.6077 21.5085 71.0223 21.7583C70.437 22.008 69.9073 22.3721 69.4644 22.8291L67.8736 21.7836C67.8325 21.7585 67.7853 21.7452 67.7372 21.7452C67.6891 21.7452 67.6419 21.7585 67.6008 21.7836C67.5587 21.8025 67.5226 21.8326 67.4965 21.8707C67.4704 21.9088 67.4554 21.9534 67.4531 21.9995V34.8517H69.7258V30.3063C70.6487 31.0121 71.7797 31.3917 72.9415 31.3858C75.3278 31.3858 77.2709 29.1131 77.2709 26.3518C77.2709 23.5904 75.3278 21.3291 72.9415 21.3291M72.2825 29.8176C71.7455 29.789 71.2258 29.6182 70.7766 29.3227C70.3273 29.0272 69.9647 28.6176 69.7258 28.1358V24.6359C69.9758 24.161 70.3408 23.7562 70.7874 23.4585C71.2339 23.1607 71.7479 22.9795 72.2825 22.9314C73.7597 22.9314 74.9642 24.4882 74.9642 26.3972C74.9642 28.3063 73.7597 29.8631 72.2825 29.8631" fill="#0066CC"/>
<path fill-rule="evenodd" clip-rule="evenodd" d="M20.2708 22.5684C18.9919 21.6674 17.4285 21.2634 15.8732 21.432C15.0988 21.4813 14.3344 21.6342 13.6006 21.8866V23.6365C14.1958 23.3189 14.8418 23.1074 15.5096 23.0116C16.0275 22.891 16.5656 22.8855 17.0859 22.9954C17.6062 23.1054 18.096 23.3281 18.5209 23.6479C18.7386 23.901 18.8594 24.2231 18.8618 24.557V25.6933C16.1346 24.6138 11.7598 25.307 11.7598 28.591C11.7598 30.3751 13.6347 31.6478 15.9641 31.4205C16.1246 31.4091 16.2841 31.3863 16.4414 31.3524H16.555C17.0173 31.2424 17.4612 31.0663 17.8732 30.8296C18.2081 30.6632 18.5308 30.4733 18.839 30.2615L20.6685 31.3978C20.7126 31.4198 20.7613 31.4313 20.8106 31.4313C20.8599 31.4313 20.9085 31.4198 20.9526 31.3978C20.9934 31.3784 21.0279 31.3479 21.0521 31.3096C21.0762 31.2714 21.089 31.2271 21.089 31.1819V25.8411C21.089 24.7047 21.248 23.4206 20.2253 22.5684M18.839 28.8297C18.4465 29.2916 17.9237 29.6242 17.3391 29.7842C15.9869 30.2046 14.5665 29.8524 14.1801 28.9888C13.7938 28.1251 14.5551 27.1138 15.9073 26.7161C16.3935 26.5312 16.9193 26.4759 17.4333 26.5555C17.9473 26.6352 18.4317 26.8472 18.839 27.1706V28.8297Z" fill="#0066CC"/>
<path fill-rule="evenodd" clip-rule="evenodd" d="M64.5204 22.568C63.2411 21.6679 61.6781 21.264 60.1229 21.4316C59.3484 21.4809 58.5841 21.6338 57.8502 21.8862V23.6362C58.4409 23.3174 59.0834 23.1058 59.7479 23.0112C60.2676 22.8896 60.8076 22.8836 61.3299 22.9936C61.8522 23.1035 62.3439 23.3268 62.7705 23.6475C62.985 23.9017 63.1019 24.224 63.1 24.5566V25.6929C60.3729 24.6134 55.998 25.3066 55.998 28.5906C55.998 30.3747 57.8843 31.6474 60.2024 31.4201C60.363 31.4094 60.5225 31.3866 60.6797 31.352H60.7933C61.2824 31.2473 61.7533 31.0712 62.191 30.8292C62.5214 30.6613 62.8403 30.4715 63.1455 30.2611L64.9863 31.3974C65.0281 31.4203 65.075 31.4323 65.1227 31.4323C65.1704 31.4323 65.2172 31.4203 65.2591 31.3974C65.3012 31.3786 65.3373 31.3484 65.3634 31.3103C65.3895 31.2722 65.4045 31.2276 65.4068 31.1815V25.8407C65.4068 24.7043 65.5545 23.4202 64.5432 22.568M63.1455 28.8293C62.7594 29.2931 62.2395 29.6264 61.6569 29.7838C60.3047 30.2043 58.8843 29.852 58.4866 28.9884C58.0889 28.1247 58.8616 27.1134 60.2138 26.7157C60.6999 26.5308 61.2258 26.4755 61.7398 26.5551C62.2537 26.6348 62.7382 26.8468 63.1455 27.1702V28.8293Z" fill="#0066CC"/>
<path d="M38.9072 40.1475V41.0224H37.1914V41.8861H38.8845V43.7156H43.4298V41.8861H45.1911V41.0224H43.4525V40.1475H42.4071V41.0224H39.9186V40.1475H38.9072ZM42.4071 42.8861H39.9186V41.8861H42.4071V42.8861Z" fill="#0066CC"/>
<path d="M55.5655 38.2042H50.293V41.3633H55.5655V38.2042ZM54.5087 40.6815H51.3043V40.1019H54.5087V40.6815ZM54.5087 39.4428H51.3043V38.886H54.5087V39.4428Z" fill="#0066CC"/>
<path d="M55.9657 41.9888H53.3976V41.5684H52.2954V41.9888H49.75V42.8297H55.9657V41.9888Z" fill="#0066CC"/>
<path d="M42.2736 46.7719C43.0094 46.308 43.6817 45.7503 44.2735 45.1128L43.8076 44.3174H37.342V45.1583H37.9897C38.5664 45.7807 39.2237 46.3234 39.9441 46.7719C39.0243 47.0783 38.0614 47.2356 37.092 47.2378H36.9102L37.4783 48.2378C38.7298 48.1864 39.96 47.8972 41.1032 47.3855C42.2467 47.8961 43.4767 48.1853 44.728 48.2378L45.3189 47.2378H45.1485C44.179 47.2356 43.2161 47.0783 42.2963 46.7719M39.4669 45.1583H42.7622C42.2593 45.6001 41.7063 45.9815 41.1145 46.2946C40.5176 45.9844 39.9605 45.6029 39.4555 45.1583" fill="#0066CC"/>
<path d="M59.5419 38.4654L58.6102 38.0222C57.9131 38.9113 57.0531 39.6594 56.0762 40.2267L56.5762 41.1017C57.7335 40.4335 58.7426 39.5364 59.5419 38.4654Z" fill="#0066CC"/>
<path d="M59.9184 41.4764L58.9866 41.0332C58.22 42.0392 57.2427 42.8653 56.123 43.4536L56.6344 44.3286C57.929 43.636 59.0513 42.6612 59.9184 41.4764Z" fill="#0066CC"/>
<path d="M41.4765 38.0106H40.3402V38.8742H35.7949V41.9197C35.7949 42.2606 35.7949 42.6242 35.7949 43.056C35.7949 43.4878 35.7949 43.8515 35.7153 44.2719C35.6811 45.4939 35.411 46.6978 34.9199 47.8173L35.8517 48.2491C36.4166 47.0486 36.7556 45.7543 36.8517 44.431C36.8517 43.9878 36.9198 43.5446 36.9426 43.1128C36.9653 42.681 36.9426 42.2833 36.9426 41.9765V39.8629H45.34V38.8742H41.4765V38.0106Z" fill="#0066CC"/>
<path d="M70.4082 44.5103C71.0796 45.4002 71.8982 46.1689 72.8286 46.783L73.3513 45.8966C72.5573 45.3747 71.858 44.7214 71.2832 43.9648L70.4082 44.5103Z" fill="#0066CC"/>
<path d="M65.4735 39.3854H73.6777V38.374H64.3145V47.8853H74.03V46.8739H65.4735V39.3854Z" fill="#0066CC"/>
<path d="M81.7598 41.2499V42.2158H86.305C85.7097 42.6752 85.0832 43.0929 84.4301 43.4658V47.0907C84.4301 47.2839 84.3165 47.2953 84.1574 47.2953H82.6461L83.2143 48.2612H84.7256C84.8444 48.2627 84.9624 48.2405 85.0726 48.1961C85.1828 48.1517 85.2831 48.0858 85.3677 48.0023C85.4522 47.9188 85.5194 47.8193 85.5652 47.7096C85.611 47.6 85.6346 47.4823 85.6346 47.3634V43.9544C86.4886 43.4381 87.2882 42.8365 88.0209 42.159L87.5095 41.2612L81.7598 41.2499Z" fill="#0066CC"/>
<path d="M85.2259 39.1705V38.0342H84.0896V39.1705H80.0898V41.7955C79.8544 41.1523 79.5456 40.5384 79.1694 39.966L78.2148 40.4205C78.6858 41.0334 79.0331 41.7319 79.2375 42.4773L80.1239 42.0114C80.1239 42.3296 80.1239 42.6478 80.1239 42.9773C79.5719 43.4767 78.9271 43.8628 78.2262 44.1136L78.7489 45.0114C79.2069 44.8253 79.6448 44.5931 80.0557 44.3182C79.9746 45.5038 79.6619 46.662 79.1353 47.7272L80.2716 48.25C81.0646 46.3579 81.4144 44.3095 81.2943 42.2614V40.216H88.8508V39.1705H85.2259Z" fill="#0066CC"/>
<path d="M73.6781 42.8744H70.3828V41.4881H73.1782V40.5904H68.2352C68.3829 40.329 68.4511 40.2495 68.5761 39.9881L67.6216 39.5449C67.2098 40.3492 66.6813 41.0883 66.0534 41.7381L66.8602 42.3858C67.1453 42.1081 67.4075 41.8079 67.6443 41.4881H69.2351V42.8744H65.9512V43.8176H69.1215C68.7124 44.9539 67.2579 45.5562 66.1557 45.8744L66.6671 46.7835C68.2238 46.2948 70.076 45.2949 70.2805 43.829H73.6895L73.6781 42.8744Z" fill="#0066CC"/>
<path d="M56.0195 47.2378L56.5309 48.1128C57.9815 47.2941 59.2012 46.1212 60.0762 44.7037L59.1558 44.3174C58.3675 45.5349 57.29 46.5382 56.0195 47.2378Z" fill="#0066CC"/>
<path d="M55.3729 43.3055H50.373V45.5782H52.2707V47.1237C52.2707 47.3282 52.1571 47.3396 51.9866 47.3396H51.1912L51.7366 48.2714H52.4525C52.5714 48.2729 52.6893 48.2508 52.7995 48.2063C52.9098 48.1619 53.0101 48.096 53.0946 48.0125C53.1792 47.929 53.2463 47.8295 53.2922 47.7199C53.338 47.6102 53.3616 47.4925 53.3616 47.3737V45.5669H55.3729V43.3055ZM54.3388 44.8396H51.4185V44.0442H54.3843L54.3388 44.8396Z" fill="#0066CC"/>
<path d="M50.8256 45.7275C50.5441 46.3717 50.1343 46.9517 49.6211 47.4321L50.2802 48.1252C50.8558 47.5492 51.3252 46.876 51.6665 46.1366L50.8256 45.7275Z" fill="#0066CC"/>
<path d="M54.7494 45.7275L53.9199 46.1366C54.2528 46.878 54.7189 47.552 55.2949 48.1252L55.9653 47.4321C55.4453 46.9552 55.0311 46.3745 54.7494 45.7275Z" fill="#0066CC"/>
<path d="M327.373 19.9813C327.251 20.0423 327.159 20.1033 327.067 20.1643L326.18 19.0967C327.588 18.334 328.797 17.2664 329.807 15.9089L331.276 16.2445L330.725 16.9766H334.397V17.8917C334.076 18.3188 333.755 18.6848 333.449 19.0204H336.081V22.6047H331.689C332.209 23.169 332.638 23.7791 332.944 24.435C333.892 24.0079 334.704 23.4893 335.362 22.8792L336.31 23.9621C335.867 24.3129 335.392 24.6332 334.902 24.9078C335.3 26.1737 336.004 27.3024 336.999 28.2938L336.035 29.4835C335.025 28.2633 334.275 26.9211 333.816 25.4569L333.387 25.6399C333.51 26.128 333.586 26.6618 333.617 27.2109C333.617 28.2938 333.433 29.0411 333.066 29.4682C332.76 29.819 332.179 30.0478 331.352 30.1393C331.077 30.1698 330.786 30.1851 330.465 30.1851L330.021 28.8886C330.48 28.8886 330.878 28.8734 331.184 28.8581C331.475 28.8276 331.719 28.7208 331.903 28.5073C332.071 28.2785 332.163 27.8515 332.163 27.2109C332.163 27.1346 332.148 27.0583 332.148 26.9973C330.893 28.0955 329.271 29.0106 327.282 29.7427L326.547 28.5073C328.858 27.7752 330.664 26.8296 331.949 25.6856C331.888 25.4416 331.796 25.2128 331.704 24.9993C330.602 25.9602 329.133 26.7533 327.312 27.3786L326.608 26.189C328.567 25.6246 330.082 24.9078 331.169 24.0231C331.016 23.8096 330.878 23.6113 330.725 23.4436C329.807 24.2367 328.628 24.7858 327.159 25.1061L326.624 23.9164C327.909 23.6571 328.919 23.2148 329.669 22.6047H327.373V19.9813ZM331.643 19.0204C331.995 18.7306 332.347 18.4103 332.684 18.0748H329.761C329.409 18.4103 329.057 18.7306 328.72 19.0204H331.643ZM334.673 21.4303V20.1948H332.561C332.454 20.6371 332.332 21.049 332.179 21.4303H334.673ZM330.679 21.4303C330.893 21.049 331.061 20.6371 331.169 20.1948H328.781V21.4303H330.679ZM324.374 22.0251C323.991 22.5742 323.578 23.108 323.135 23.6266L322.66 22.0709C324.007 20.3168 324.986 18.273 325.629 15.9242L326.976 16.5648C326.67 17.6019 326.287 18.5933 325.828 19.539V30.1088H324.374V22.0251Z" fill="#0066CC"/>
<path d="M308.337 16.5344H315.101V20.805H312.194L312.377 21.5676H315.805V22.681H307.542V21.5676H311.015L310.832 20.805H308.337V16.5344ZM313.785 19.8594V19.1272H309.638V19.8594H313.785ZM309.638 18.2731H313.785V17.5105H309.638V18.2731ZM308.46 23.3979H315.01V26.4941H312.423V28.7514C312.423 29.5751 311.98 29.9869 311.123 29.9869H310.051L309.761 28.7209C310.082 28.7819 310.388 28.8124 310.679 28.8124C310.908 28.8124 311.031 28.6752 311.031 28.4311V26.4941H308.46V23.3979ZM313.678 25.4874V24.374H309.791V25.4874H313.678ZM308.766 26.8144L309.852 27.333C309.455 28.3091 308.98 29.1632 308.429 29.8954L307.389 29.148C307.924 28.4921 308.383 27.7143 308.766 26.8144ZM314.107 26.8449C314.658 27.6075 315.071 28.2939 315.361 28.8735L314.336 29.5903C314.03 28.9497 313.632 28.2329 313.112 27.455L314.107 26.8449ZM319.998 16.1073L320.886 17.1139C319.662 18.3494 318.147 19.3713 316.341 20.1797L315.744 18.9442C317.473 18.2121 318.896 17.2665 319.998 16.1073ZM320.411 20.1186L321.299 21.1253C320.029 22.5438 318.483 23.7182 316.647 24.6333L316.05 23.4131C317.825 22.5743 319.279 21.4761 320.411 20.1186ZM320.549 24.0537L321.666 24.8926C320.411 27.3025 318.529 29.0412 316.05 30.0936L315.469 28.7667C317.718 27.8058 319.417 26.2348 320.549 24.0537Z" fill="#0066CC"/>
<path d="M292.531 17.1748H298.484V16.0614H299.953V17.1748H305.89V18.4865H299.953V19.5694H305.095V20.8659H293.373V19.5694H298.484V18.4865H292.531V17.1748ZM298.637 23.0164H295.117V23.9468C295.117 24.1299 295.102 24.3281 295.102 24.5112H298.637V23.0164ZM300.106 24.5112H303.411V23.0164H300.106V24.5112ZM294.979 25.7924C294.75 27.4701 294.214 28.9496 293.357 30.246L292.148 29.1784C293.158 27.8362 293.663 26.0821 293.679 23.9468V21.7505H304.819V25.7924H294.979Z" fill="#0066CC"/>
<path d="M284.096 22.9719H290.125V27.8831H284.096V22.9719ZM288.809 26.6324V24.2378H285.397V26.6324H288.809ZM277.485 17.9996H279.704V16.0321H281.097V17.9996H283.285V19.2808H281.097V21.2331H283.193V22.5448H281.418V24.3904H283.27V25.702H281.418V28.0509C281.479 28.0661 281.525 28.0814 281.586 28.1119C282.474 28.4169 284.54 28.5695 287.784 28.5695C289.177 28.5695 290.217 28.539 290.89 28.4932L290.646 29.9269H288.105C284.188 29.9269 281.724 29.6981 280.729 29.2711C279.964 28.9203 279.291 28.3407 278.694 27.5323C278.495 28.4475 278.235 29.3016 277.929 30.1252L276.873 29.1948C277.485 27.4408 277.837 25.5038 277.914 23.3684L279.153 23.521C279.123 24.3141 279.077 25.0615 278.985 25.7783C279.306 26.3274 279.658 26.8002 280.056 27.1663V22.5448H277.347V21.2331H279.704V19.2808H277.485V17.9996ZM285.657 18.0149H283.698V16.6727H290.355C290.34 19.3876 290.187 21.0043 289.911 21.5382C289.62 22.072 289.131 22.3465 288.427 22.3465C288.105 22.3465 287.723 22.316 287.264 22.2703L286.912 21.0043C287.401 21.0501 287.799 21.0806 288.121 21.1111C288.488 21.0959 288.702 20.9128 288.794 20.5773C288.886 20.257 288.947 19.4029 288.962 18.0149H287.004C286.805 19.0368 286.544 19.8604 286.223 20.4705C285.795 21.2331 285.152 21.9042 284.326 22.4991L283.377 21.3094C284.081 20.8518 284.632 20.3332 284.999 19.7689C285.274 19.3113 285.504 18.7318 285.657 18.0149Z" fill="#0066CC"/>
<path d="M266.072 15.9089L267.434 16.5495C266.913 17.8002 266.24 18.9899 265.414 20.1033V30.1546H263.975V21.7963C263.348 22.4369 262.674 23.0623 261.955 23.6571L261.496 22.1471C263.562 20.3626 265.092 18.2883 266.072 15.9089ZM273.341 29.88H270.479C269.255 29.88 268.643 29.2699 268.643 28.0497V23.7791C268.092 24.0689 267.525 24.3587 266.944 24.6332L266.286 23.2605C267.112 22.8945 267.908 22.5132 268.643 22.0861V16.153H270.096V21.1862C271.596 20.1948 272.927 19.0662 274.06 17.8002L275.07 18.9441C273.616 20.4389 271.963 21.7811 270.096 22.9402V27.8515C270.096 28.2785 270.326 28.4921 270.816 28.4921H273.096C273.448 28.4921 273.708 28.37 273.876 28.1413C274.029 27.9125 274.136 27.1041 274.167 25.7009L275.514 26.1432C275.406 27.8972 275.207 28.9649 274.932 29.3309C274.641 29.697 274.106 29.88 273.341 29.88Z" fill="#0066CC"/>
<path d="M248.594 24.9852V26.0986H251.747V24.9852H248.594ZM251.747 23.7955V22.6211H248.594V23.7955H251.747ZM248.594 27.3035V30.1557H247.186V21.3551H253.155V28.4627C253.155 29.5151 252.65 30.0489 251.67 30.0489H250.477L250.125 28.6915L251.211 28.7525C251.563 28.7525 251.747 28.5542 251.747 28.1577V27.3035H248.594ZM258.373 22.8041H255.878C254.807 22.8041 254.287 22.2245 254.287 21.0654V16.1084H255.725V17.9081C257.302 17.6641 258.587 17.4201 259.582 17.1455L260.056 18.4267C258.801 18.7165 257.363 18.991 255.725 19.2351V20.7603C255.725 21.2484 255.909 21.5077 256.276 21.5077H258.097C258.342 21.5077 258.511 21.4314 258.618 21.2789C258.74 21.0959 258.832 20.5773 258.862 19.7232L260.224 20.1655C260.102 21.4314 259.888 22.194 259.612 22.4533C259.337 22.6821 258.924 22.8041 258.373 22.8041ZM255.725 26.3274V28.1882C255.725 28.4627 255.894 28.6 256.261 28.6H258.113C258.357 28.6 258.541 28.5237 258.648 28.3864C258.771 28.2034 258.862 27.6848 258.908 26.8307L260.224 27.2578C260.102 28.539 259.903 29.3016 259.628 29.5456C259.367 29.7744 258.954 29.8964 258.388 29.8964H255.848C254.807 29.8964 254.287 29.4236 254.287 28.5085V23.3379H255.725V25.0157C257.164 24.8632 258.449 24.6039 259.582 24.2683L260.056 25.5648C258.709 25.9308 257.256 26.1749 255.725 26.3274ZM252.053 17.115C252.956 18.3199 253.644 19.3724 254.134 20.257L252.94 21.1111C252.787 20.8061 252.619 20.4858 252.435 20.1655C250.844 20.4095 248.931 20.5925 246.697 20.7146L246.299 19.5096C246.559 19.4181 246.773 19.2961 246.957 19.1436C247.89 18.1064 248.61 17.0693 249.099 16.0321L250.492 16.4439C249.849 17.6946 249.13 18.686 248.334 19.4486C249.405 19.3876 250.568 19.2656 251.808 19.1131C251.532 18.686 251.242 18.2589 250.936 17.8166L252.053 17.115Z" fill="#0066CC"/>
<path d="M233.232 18.3188C232.911 18.7764 232.574 19.1577 232.222 19.478H234.426C234.487 19.0967 234.533 18.7154 234.563 18.3188H233.232ZM234.028 20.8049H231.181V19.478H231.87L231.151 18.5781C231.855 17.9527 232.482 17.0681 233.002 15.9089L234.303 16.1835C234.196 16.4885 234.074 16.7631 233.951 17.0376H238.144V18.3188H235.956C235.925 18.7306 235.895 19.1119 235.833 19.478H238.573V20.8049H235.527C235.497 20.8812 235.481 20.9574 235.466 21.0184C236.599 21.598 237.547 22.1776 238.343 22.7572L237.44 23.6723H243.286V30.1546H241.817V29.5597H234.594V30.1546H233.14V23.8859C232.742 24.1299 232.329 24.3739 231.87 24.5875L230.891 23.4131C232.482 22.7114 233.507 21.8726 233.997 20.8659L234.028 20.8049ZM234.594 28.2785H241.817V27.2719H234.594V28.2785ZM234.594 26.0212H241.817V24.9535H234.594V26.0212ZM233.446 23.6723H237.18C236.599 23.1538 235.879 22.6199 234.992 22.0709C234.625 22.6504 234.104 23.1843 233.446 23.6723ZM239.047 17.0529H244.403V22.8182H239.047V17.0529ZM242.98 21.5523V18.334H240.47V21.5523H242.98Z" fill="#0066CC"/>
<path d="M222.014 22.7582H223.453C223.391 23.2463 223.3 23.7191 223.208 24.1462H229.467V25.5494H224.019C225.274 27.1508 227.202 28.249 229.773 28.8591L228.977 30.125C226.177 29.3319 224.08 27.8677 222.672 25.7171C222.335 26.434 221.938 27.0593 221.448 27.5932C220.438 28.6608 218.693 29.515 216.214 30.1555L215.633 28.8133C217.775 28.31 219.336 27.6084 220.285 26.6933C220.622 26.3577 220.912 25.9764 221.157 25.5494H215.954V24.1462H221.723C221.846 23.7038 221.953 23.2463 222.014 22.7582ZM219.03 17.3284L220.377 17.8622C219.55 19.6925 218.479 21.0957 217.148 22.0718L216 21.0652C217.347 20.1196 218.357 18.8841 219.03 17.3284ZM226.069 17.0386C227.477 18.6248 228.548 19.9975 229.314 21.1872L228.074 22.0413C227.309 20.7601 226.253 19.3112 224.937 17.7249L226.069 17.0386ZM221.984 16.2302H223.453V22.2091H221.984V16.2302Z" fill="#0066CC"/>
<path d="M200.53 21.3399H202.596V16.0779H203.989V21.3399H205.703V22.6668H203.989V23.1244C204.723 23.826 205.443 24.6039 206.177 25.458L205.351 26.6934C204.83 25.7631 204.371 25.0004 203.989 24.4056V30.1252H202.596V24.7869C202.137 25.9766 201.54 27.0595 200.836 28.0509L200.209 26.4799C201.25 25.3665 202.03 24.1006 202.52 22.6668H200.53V21.3399ZM204.953 17.0998L206.024 17.237C205.932 18.5182 205.703 19.6469 205.335 20.6383L204.402 20.3332C204.677 19.4029 204.861 18.3199 204.953 17.0998ZM201.571 17.3285C201.785 18.2589 201.984 19.3266 202.152 20.5163L201.188 20.7603C201.005 19.6926 200.79 18.6555 200.53 17.6641L201.571 17.3285ZM209.605 16.0321H210.998V16.932H214.073V18.1064H210.998V18.8538H213.63V19.9977H210.998V20.7603H214.425V21.9652H206.131V20.7603H209.605V19.9977H206.881V18.8538H209.605V18.1064H206.437V16.932H209.605V16.0321ZM208.197 25.8088V26.6324H212.314V25.8088H208.197ZM212.314 24.7106V23.8413H208.197V24.7106H212.314ZM208.197 27.7153V30.0947H206.835V22.6668H213.706V28.6152C213.706 29.5456 213.232 30.0184 212.283 30.0184H211.227L210.875 28.7525L211.87 28.8288C212.161 28.8288 212.314 28.661 212.314 28.3254V27.7153H208.197Z" fill="#0066CC"/>
<path d="M192.523 15.9547C192.661 16.336 192.799 16.7478 192.937 17.2054H198.889V18.5476H185.285V17.2054H191.36C191.223 16.8546 191.07 16.5343 190.901 16.2293L192.523 15.9547ZM196.41 30.0783H195.14L194.804 28.7819L195.982 28.8429C196.548 28.8429 196.839 28.6294 196.839 28.2328V24.374H187.351V30.1241H185.974V23.1233H198.216V28.5378C198.216 29.5597 197.604 30.0783 196.41 30.0783ZM187.688 19.2645H196.517V22.4369H187.688V19.2645ZM195.125 21.3388V20.3626H189.08V21.3388H195.125ZM188.988 25.1061H195.217V28.3091H188.988V25.1061ZM193.931 27.2414V26.1737H190.289V27.2414H193.931Z" fill="#0066CC"/>
<path d="M171.271 16.1994C172.312 16.962 173.199 17.7093 173.934 18.4567L172.893 19.4939C172.266 18.777 171.378 18.0144 170.215 17.206L171.271 16.1994ZM170.904 19.7836C171.899 20.531 172.74 21.2936 173.429 22.0562L172.388 23.0934C171.776 22.3918 170.934 21.6139 169.863 20.775L170.904 19.7836ZM172.541 24.0695L173.842 24.6034C173.169 26.5099 172.404 28.3097 171.562 30.0027L170.108 29.3621C171.026 27.6386 171.837 25.8693 172.541 24.0695ZM174.362 18.5025H178.28C178.004 17.7551 177.698 17.0382 177.346 16.3519L178.693 15.9706C179.137 16.8857 179.473 17.7246 179.718 18.4872L179.672 18.5025H183.468V19.9209H179.672V23.1849H183.054V24.5729H179.672V28.1876H183.789V29.6061H173.98V28.1876H178.219V24.5729H174.791V23.1849H178.219V19.9209H174.362V18.5025Z" fill="#0066CC"/>
<path d="M154.574 20.561H158.874C158.997 20.0424 159.134 19.5391 159.257 19.0205H155.615V17.6631H159.563C159.685 17.0835 159.793 16.4886 159.915 15.9091L161.415 16.0311C161.307 16.5954 161.2 17.1445 161.109 17.6631H167.505V19.0205H160.818C160.695 19.5544 160.573 20.0729 160.451 20.561H168.408V21.949H160.068C159.884 22.559 159.716 23.1234 159.532 23.6572H166.618V24.9079C165.914 25.9451 164.827 26.9822 163.358 28.0346C164.184 28.3397 164.98 28.66 165.745 28.9955L164.95 30.2462C162.669 29.1785 160.328 28.3244 157.941 27.7143L158.706 26.5856C159.777 26.8602 160.802 27.15 161.782 27.4855C163.083 26.6619 164.108 25.8383 164.858 24.9842H157.451C157.818 24.008 158.155 23.0014 158.476 21.949H154.574V20.561Z" fill="#0066CC"/>
<path d="M334.942 37.2754H335.632V43.5336H334.985V42.8029C334.674 43.3703 334.174 43.654 333.501 43.654C332.846 43.654 332.337 43.4133 331.975 42.9491C331.638 42.5193 331.475 41.9691 331.475 41.2986C331.475 40.6452 331.638 40.1122 331.975 39.6824C332.337 39.201 332.829 38.9689 333.467 38.9689C334.105 38.9689 334.597 39.2784 334.942 39.9059V37.2754ZM333.614 39.5363C333.122 39.5363 332.751 39.7082 332.51 40.0521C332.285 40.3529 332.182 40.7656 332.182 41.2986C332.182 41.8315 332.285 42.2528 332.501 42.5622C332.742 42.9061 333.105 43.0866 333.588 43.0866C334.036 43.0866 334.381 42.9147 334.631 42.5708C334.847 42.2614 334.959 41.8573 334.959 41.3587V41.2728C334.959 40.757 334.83 40.3357 334.588 40.0177C334.338 39.691 334.01 39.5363 333.614 39.5363Z" fill="#0066CC"/>
<path d="M328.915 38.968C330.019 38.968 330.58 39.5784 330.58 40.7991V43.5328H329.89V40.8507C329.89 39.9824 329.493 39.5526 328.717 39.5526C328.407 39.5526 328.139 39.6643 327.915 39.8878C327.673 40.1285 327.544 40.4466 327.518 40.8507V43.5328H326.828V39.0884H327.518V39.7417C327.673 39.4924 327.872 39.3033 328.113 39.1743C328.355 39.0368 328.622 38.968 328.915 38.968Z" fill="#0066CC"/>
<path d="M322.002 39.0897H322.692V41.8062C322.692 42.2274 322.778 42.5455 322.959 42.7518C323.14 42.9581 323.434 43.0699 323.839 43.0699C324.132 43.0699 324.4 42.9495 324.633 42.726C324.874 42.4853 325.021 42.1759 325.072 41.7976V39.0897H325.762V43.5341H325.072V42.8464C324.71 43.3794 324.227 43.6545 323.623 43.6545C322.537 43.6545 322.002 43.0441 322.002 41.8406V39.0897Z" fill="#0066CC"/>
<path d="M318.94 38.968C319.604 38.968 320.139 39.1915 320.536 39.6557C320.915 40.0942 321.105 40.6443 321.105 41.3149C321.105 41.9768 320.915 42.527 320.545 42.9568C320.139 43.421 319.604 43.6531 318.94 43.6531C318.268 43.6531 317.741 43.421 317.345 42.9568C316.965 42.527 316.775 41.9768 316.775 41.3149C316.775 40.6443 316.965 40.0942 317.345 39.6557C317.741 39.1915 318.268 38.968 318.94 38.968ZM318.94 39.544C318.466 39.544 318.095 39.7245 317.836 40.0856C317.595 40.4122 317.483 40.8163 317.483 41.3149C317.483 41.8049 317.595 42.2089 317.836 42.5356C318.095 42.8966 318.466 43.0771 318.94 43.0771C319.406 43.0771 319.777 42.8966 320.053 42.5356C320.286 42.2089 320.407 41.7963 320.407 41.3149C320.407 40.8163 320.286 40.4122 320.053 40.0856C319.777 39.7245 319.406 39.544 318.94 39.544Z" fill="#0066CC"/>
<path d="M314.173 38.968C315.277 38.968 315.881 39.4236 316.002 40.3521H315.329C315.268 40.077 315.156 39.8706 314.984 39.7503C314.794 39.6128 314.518 39.544 314.164 39.544C313.854 39.544 313.612 39.5956 313.44 39.7159C313.25 39.8277 313.155 39.9824 313.155 40.1801C313.155 40.3692 313.276 40.5326 313.535 40.6615C313.699 40.7389 314.009 40.8335 314.458 40.9538C314.992 41.0828 315.372 41.2203 315.605 41.3664C315.958 41.5899 316.14 41.8908 316.14 42.2777C316.14 43.1889 315.51 43.6531 314.251 43.6531C313.078 43.6531 312.439 43.1373 312.336 42.1143H313.009C313.06 42.4668 313.19 42.7161 313.38 42.8708C313.569 43.0084 313.854 43.0771 314.233 43.0771C315.027 43.0771 315.432 42.8192 315.432 42.3207C315.432 42.0714 315.286 41.8822 315.01 41.7447C314.863 41.6759 314.544 41.5814 314.061 41.461C313.535 41.3321 313.164 41.2031 312.957 41.0656C312.612 40.8592 312.448 40.5756 312.448 40.1973C312.448 39.8191 312.612 39.5268 312.948 39.3033C313.259 39.0798 313.673 38.968 314.173 38.968Z" fill="#0066CC"/>
<path d="M309.719 38.968C310.357 38.968 310.823 39.1314 311.133 39.4666C311.392 39.7589 311.53 40.1629 311.53 40.6787V43.5328H310.883V42.7849C310.71 43.0256 310.478 43.2233 310.202 43.378C309.874 43.5585 309.503 43.6531 309.089 43.6531C308.64 43.6531 308.287 43.5414 308.019 43.3178C307.743 43.0857 307.605 42.7849 307.605 42.4238C307.605 41.9166 307.804 41.5384 308.218 41.2805C308.58 41.0398 309.098 40.9108 309.77 40.9022L310.84 40.885V40.6529C310.84 39.905 310.452 39.5354 309.675 39.5354C309.348 39.5354 309.08 39.5956 308.873 39.7331C308.64 39.8706 308.494 40.0856 308.425 40.3692L307.743 40.3177C307.838 39.8535 308.071 39.501 308.433 39.2775C308.761 39.0712 309.184 38.968 309.719 38.968ZM310.84 41.4008L309.813 41.418C308.813 41.4352 308.313 41.7619 308.313 42.4066C308.313 42.6129 308.39 42.7763 308.563 42.9138C308.735 43.0428 308.96 43.1115 309.236 43.1115C309.658 43.1115 310.029 42.974 310.357 42.6989C310.676 42.4324 310.84 42.1229 310.84 41.7791V41.4008Z" fill="#0066CC"/>
<path d="M306.585 38.968C306.826 38.968 307.033 39.0024 307.197 39.0712V39.7589C306.973 39.6901 306.749 39.6643 306.533 39.6643C306.188 39.6643 305.895 39.8105 305.662 40.1199C305.42 40.4122 305.308 40.7647 305.308 41.1773V43.5328H304.627V39.0884H305.308V39.8621C305.429 39.6042 305.584 39.3978 305.774 39.2517C306.007 39.0626 306.274 38.968 306.585 38.968Z" fill="#0066CC"/>
<path d="M302.752 37.6533V39.0889H303.856V39.6649H302.752V42.4931C302.752 42.6565 302.778 42.7768 302.847 42.8456C302.907 42.9144 303.02 42.9574 303.175 42.9574H303.744V43.5333H303.071C302.709 43.5333 302.442 43.4388 302.286 43.2496C302.14 43.0777 302.071 42.8284 302.071 42.4931V39.6649H301.174V39.0889H302.071V37.937L302.752 37.6533Z" fill="#0066CC"/>
<path d="M299.668 37.2754H300.349V43.5336H299.668V37.2754Z" fill="#0066CC"/>
<path d="M293.461 37.3975H294.168V41.1885C294.168 41.7903 294.298 42.2459 294.574 42.5554C294.858 42.8734 295.307 43.0368 295.919 43.0368C296.523 43.0368 296.971 42.8734 297.265 42.5554C297.532 42.2459 297.67 41.7903 297.67 41.1885V37.3975H298.377V41.1799C298.377 41.9794 298.17 42.5897 297.765 43.011C297.342 43.4408 296.73 43.6557 295.919 43.6557C295.108 43.6557 294.496 43.4408 294.082 43.0196C293.668 42.5897 293.461 41.9794 293.461 41.1799V37.3975Z" fill="#0066CC"/>
<path d="M285.73 39.0897H286.481L287.844 42.5971L289.163 39.0897H289.922L287.481 45.2362H286.731L287.499 43.431L285.73 39.0897Z" fill="#0066CC"/>
<path d="M285.03 38.968C285.272 38.968 285.479 39.0024 285.643 39.0712V39.7589C285.418 39.6901 285.194 39.6643 284.978 39.6643C284.633 39.6643 284.34 39.8105 284.107 40.1199C283.866 40.4122 283.754 40.7647 283.754 41.1773V43.5328H283.072V39.0884H283.754V39.8621C283.874 39.6042 284.03 39.3978 284.219 39.2517C284.452 39.0626 284.72 38.968 285.03 38.968Z" fill="#0066CC"/>
<path d="M280.195 38.968C280.833 38.968 281.299 39.1314 281.61 39.4666C281.868 39.7589 282.006 40.1629 282.006 40.6787V43.5328H281.36V42.7849C281.187 43.0256 280.954 43.2233 280.678 43.378C280.35 43.5585 279.98 43.6531 279.566 43.6531C279.117 43.6531 278.763 43.5414 278.496 43.3178C278.22 43.0857 278.082 42.7849 278.082 42.4238C278.082 41.9166 278.28 41.5384 278.694 41.2805C279.057 41.0398 279.574 40.9108 280.247 40.9022L281.316 40.885V40.6529C281.316 39.905 280.928 39.5354 280.152 39.5354C279.824 39.5354 279.557 39.5956 279.35 39.7331C279.117 39.8706 278.97 40.0856 278.901 40.3692L278.22 40.3177C278.315 39.8535 278.548 39.501 278.91 39.2775C279.238 39.0712 279.66 38.968 280.195 38.968ZM281.316 41.4008L280.29 41.418C279.29 41.4352 278.789 41.7619 278.789 42.4066C278.789 42.6129 278.867 42.7763 279.039 42.9138C279.212 43.0428 279.436 43.1115 279.712 43.1115C280.135 43.1115 280.506 42.974 280.833 42.6989C281.153 42.4324 281.316 42.1229 281.316 41.7791V41.4008Z" fill="#0066CC"/>
<path d="M275.525 38.968C276.629 38.968 277.189 39.5784 277.189 40.7991V43.5328H276.499V40.8507C276.499 39.9824 276.103 39.5526 275.326 39.5526C275.016 39.5526 274.748 39.6643 274.524 39.8878C274.283 40.1285 274.153 40.4466 274.128 40.8507V43.5328H273.438V39.0884H274.128V39.7417C274.283 39.4924 274.481 39.3033 274.723 39.1743C274.964 39.0368 275.232 38.968 275.525 38.968Z" fill="#0066CC"/>
<path d="M270.374 38.968C271.038 38.968 271.573 39.1915 271.969 39.6557C272.349 40.0942 272.539 40.6443 272.539 41.3149C272.539 41.9768 272.349 42.527 271.978 42.9568C271.573 43.421 271.038 43.6531 270.374 43.6531C269.701 43.6531 269.175 43.421 268.778 42.9568C268.399 42.527 268.209 41.9768 268.209 41.3149C268.209 40.6443 268.399 40.0942 268.778 39.6557C269.175 39.1915 269.701 38.968 270.374 38.968ZM270.374 39.544C269.899 39.544 269.529 39.7245 269.27 40.0856C269.028 40.4122 268.916 40.8163 268.916 41.3149C268.916 41.8049 269.028 42.2089 269.27 42.5356C269.529 42.8966 269.899 43.0771 270.374 43.0771C270.84 43.0771 271.21 42.8966 271.486 42.5356C271.719 42.2089 271.84 41.7963 271.84 41.3149C271.84 40.8163 271.719 40.4122 271.486 40.0856C271.21 39.7245 270.84 39.544 270.374 39.544Z" fill="#0066CC"/>
<path d="M266.746 37.4131C266.893 37.4131 267.013 37.4561 267.117 37.5592C267.22 37.6452 267.272 37.7655 267.272 37.9203C267.272 38.0664 267.22 38.1868 267.117 38.2899C267.013 38.3845 266.893 38.4361 266.746 38.4361C266.599 38.4361 266.479 38.3845 266.375 38.2899C266.272 38.1868 266.229 38.0664 266.229 37.9203C266.229 37.7655 266.272 37.6452 266.375 37.5592C266.479 37.4561 266.599 37.4131 266.746 37.4131ZM266.401 39.0894H267.091V43.5338H266.401V39.0894Z" fill="#0066CC"/>
<path d="M263.402 38.968C264.506 38.968 265.109 39.4236 265.23 40.3521H264.557C264.497 40.077 264.385 39.8706 264.212 39.7503C264.023 39.6128 263.747 39.544 263.393 39.544C263.082 39.544 262.841 39.5956 262.668 39.7159C262.479 39.8277 262.384 39.9824 262.384 40.1801C262.384 40.3692 262.505 40.5326 262.763 40.6615C262.927 40.7389 263.238 40.8335 263.686 40.9538C264.221 41.0828 264.6 41.2203 264.833 41.3664C265.187 41.5899 265.368 41.8908 265.368 42.2777C265.368 43.1889 264.738 43.6531 263.479 43.6531C262.306 43.6531 261.668 43.1373 261.564 42.1143H262.237C262.289 42.4668 262.418 42.7161 262.608 42.8708C262.798 43.0084 263.082 43.0771 263.462 43.0771C264.255 43.0771 264.661 42.8192 264.661 42.3207C264.661 42.0714 264.514 41.8822 264.238 41.7447C264.092 41.6759 263.772 41.5814 263.289 41.461C262.763 41.3321 262.392 41.2031 262.185 41.0656C261.84 40.8592 261.677 40.5756 261.677 40.1973C261.677 39.8191 261.84 39.5268 262.177 39.3033C262.487 39.0798 262.901 38.968 263.402 38.968Z" fill="#0066CC"/>
<path d="M260.184 37.4131C260.33 37.4131 260.451 37.4561 260.554 37.5592C260.658 37.6452 260.71 37.7655 260.71 37.9203C260.71 38.0664 260.658 38.1868 260.554 38.2899C260.451 38.3845 260.33 38.4361 260.184 38.4361C260.037 38.4361 259.916 38.3845 259.813 38.2899C259.709 38.1868 259.666 38.0664 259.666 37.9203C259.666 37.7655 259.709 37.6452 259.813 37.5592C259.916 37.4561 260.037 37.4131 260.184 37.4131ZM259.839 39.0894H260.529V43.5338H259.839V39.0894Z" fill="#0066CC"/>
<path d="M253.615 37.3975H254.391L256.315 42.7703H256.341L258.264 37.3975H259.04L256.763 43.5354H255.892L253.615 37.3975Z" fill="#0066CC"/>
<path d="M247.073 37.8256C246.806 37.8256 246.599 37.8943 246.461 38.0319C246.305 38.1522 246.236 38.3328 246.236 38.5735C246.236 38.7368 246.323 38.9431 246.512 39.201C246.599 39.3214 246.737 39.4847 246.918 39.691C246.97 39.6566 247.03 39.6222 247.099 39.5878C247.634 39.2784 247.901 38.9431 247.901 38.5821C247.901 38.3585 247.832 38.1866 247.694 38.0491C247.539 37.8943 247.332 37.8256 247.073 37.8256ZM246.349 40.0091C246.073 39.7168 245.891 39.4933 245.788 39.33C245.615 39.0721 245.538 38.8228 245.538 38.5821C245.538 38.1694 245.693 37.8514 246.004 37.6107C246.288 37.3871 246.65 37.2754 247.09 37.2754C247.522 37.2754 247.884 37.3871 248.16 37.6107C248.453 37.8342 248.608 38.1436 248.608 38.5391C248.608 38.9517 248.41 39.3042 248.03 39.6136C247.789 39.7684 247.547 39.9317 247.297 40.0864L248.841 41.7112C249.065 41.2298 249.195 40.6366 249.238 39.9403H249.937C249.902 40.8515 249.704 41.6166 249.35 42.2442L250.575 43.5336H249.678L248.962 42.7771C248.444 43.3617 247.78 43.654 246.961 43.654C246.331 43.654 245.822 43.4993 245.434 43.207C245.012 42.8803 244.805 42.4333 244.805 41.8573C244.805 41.29 245.072 40.8086 245.607 40.4217L246.349 40.0091ZM246.935 43.0264C247.582 43.0264 248.099 42.7771 248.496 42.2871L246.737 40.4217C246.461 40.5936 246.202 40.7742 245.969 40.9547C245.659 41.2126 245.512 41.5221 245.512 41.8659C245.512 42.2098 245.65 42.4935 245.926 42.717C246.185 42.9233 246.521 43.0264 246.935 43.0264Z" fill="#0066CC"/>
<path d="M239.156 38.968C239.872 38.968 240.416 39.2087 240.778 39.6901C241.106 40.1199 241.278 40.7303 241.295 41.504H237.776C237.811 42.0026 237.94 42.3894 238.182 42.6645C238.423 42.9396 238.76 43.0771 239.182 43.0771C239.545 43.0771 239.846 42.9826 240.071 42.8021C240.26 42.6473 240.407 42.4152 240.519 42.1057H241.209C241.106 42.5356 240.907 42.8794 240.605 43.1545C240.235 43.4812 239.76 43.6531 239.182 43.6531C238.544 43.6531 238.027 43.4382 237.647 43.0256C237.25 42.5957 237.061 42.0284 237.061 41.3063C237.061 40.6529 237.242 40.1028 237.621 39.6643C238.001 39.2001 238.51 38.968 239.156 38.968ZM239.174 39.544C238.777 39.544 238.458 39.6729 238.216 39.9308C237.975 40.1887 237.837 40.5326 237.794 40.971H240.58C240.493 40.0168 240.019 39.544 239.174 39.544Z" fill="#0066CC"/>
<path d="M235.426 37.2754H236.107V43.5336H235.426V37.2754Z" fill="#0066CC"/>
<path d="M230.234 37.2754H230.924V39.9059C231.269 39.2784 231.761 38.9689 232.399 38.9689C233.029 38.9689 233.529 39.201 233.891 39.6824C234.219 40.1122 234.392 40.6452 234.392 41.2986C234.392 41.9691 234.219 42.5193 233.891 42.9491C233.521 43.4133 233.012 43.654 232.365 43.654C231.675 43.654 231.183 43.3703 230.881 42.8029V43.5336H230.234V37.2754ZM232.253 39.5363C231.847 39.5363 231.52 39.691 231.278 40.0177C231.019 40.3357 230.899 40.757 230.899 41.2728V41.3587C230.899 41.8573 231.011 42.2614 231.235 42.5708C231.476 42.9147 231.83 43.0866 232.279 43.0866C232.762 43.0866 233.124 42.9061 233.365 42.5622C233.572 42.2528 233.684 41.8315 233.684 41.2986C233.684 40.7656 233.572 40.3529 233.348 40.0521C233.098 39.7082 232.736 39.5363 232.253 39.5363Z" fill="#0066CC"/>
<path d="M228.6 37.4131C228.746 37.4131 228.867 37.4561 228.97 37.5592C229.074 37.6452 229.126 37.7655 229.126 37.9203C229.126 38.0664 229.074 38.1868 228.97 38.2899C228.867 38.3845 228.746 38.4361 228.6 38.4361C228.453 38.4361 228.332 38.3845 228.229 38.2899C228.125 38.1868 228.082 38.0664 228.082 37.9203C228.082 37.7655 228.125 37.6452 228.229 37.5592C228.332 37.4561 228.453 37.4131 228.6 37.4131ZM228.255 39.0894H228.945V43.5338H228.255V39.0894Z" fill="#0066CC"/>
<path d="M225.251 38.968C226.355 38.968 226.959 39.4236 227.08 40.3521H226.407C226.347 40.077 226.234 39.8706 226.062 39.7503C225.872 39.6128 225.596 39.544 225.243 39.544C224.932 39.544 224.691 39.5956 224.518 39.7159C224.328 39.8277 224.233 39.9824 224.233 40.1801C224.233 40.3692 224.354 40.5326 224.613 40.6615C224.777 40.7389 225.087 40.8335 225.536 40.9538C226.071 41.0828 226.45 41.2203 226.683 41.3664C227.037 41.5899 227.218 41.8908 227.218 42.2777C227.218 43.1889 226.588 43.6531 225.329 43.6531C224.156 43.6531 223.518 43.1373 223.414 42.1143H224.087C224.139 42.4668 224.268 42.7161 224.458 42.8708C224.647 43.0084 224.932 43.0771 225.312 43.0771C226.105 43.0771 226.51 42.8192 226.51 42.3207C226.51 42.0714 226.364 41.8822 226.088 41.7447C225.941 41.6759 225.622 41.5814 225.139 41.461C224.613 41.3321 224.242 41.2031 224.035 41.0656C223.69 40.8592 223.526 40.5756 223.526 40.1973C223.526 39.8191 223.69 39.5268 224.026 39.3033C224.337 39.0798 224.751 38.968 225.251 38.968Z" fill="#0066CC"/>
<path d="M220.898 38.968C222.002 38.968 222.605 39.4236 222.726 40.3521H222.053C221.993 40.077 221.881 39.8706 221.708 39.7503C221.519 39.6128 221.243 39.544 220.889 39.544C220.579 39.544 220.337 39.5956 220.165 39.7159C219.975 39.8277 219.88 39.9824 219.88 40.1801C219.88 40.3692 220.001 40.5326 220.259 40.6615C220.423 40.7389 220.734 40.8335 221.182 40.9538C221.717 41.0828 222.097 41.2203 222.329 41.3664C222.683 41.5899 222.864 41.8908 222.864 42.2777C222.864 43.1889 222.235 43.6531 220.975 43.6531C219.802 43.6531 219.164 43.1373 219.061 42.1143H219.733C219.785 42.4668 219.914 42.7161 220.104 42.8708C220.294 43.0084 220.579 43.0771 220.958 43.0771C221.752 43.0771 222.157 42.8192 222.157 42.3207C222.157 42.0714 222.01 41.8822 221.734 41.7447C221.588 41.6759 221.269 41.5814 220.786 41.461C220.259 41.3321 219.889 41.2031 219.682 41.0656C219.337 40.8592 219.173 40.5756 219.173 40.1973C219.173 39.8191 219.337 39.5268 219.673 39.3033C219.983 39.0798 220.397 38.968 220.898 38.968Z" fill="#0066CC"/>
<path d="M216.373 38.968C217.089 38.968 217.632 39.2087 217.995 39.6901C218.322 40.1199 218.495 40.7303 218.512 41.504H214.993C215.028 42.0026 215.157 42.3894 215.399 42.6645C215.64 42.9396 215.976 43.0771 216.399 43.0771C216.761 43.0771 217.063 42.9826 217.287 42.8021C217.477 42.6473 217.624 42.4152 217.736 42.1057H218.426C218.322 42.5356 218.124 42.8794 217.822 43.1545C217.451 43.4812 216.977 43.6531 216.399 43.6531C215.761 43.6531 215.243 43.4382 214.864 43.0256C214.467 42.5957 214.277 42.0284 214.277 41.3063C214.277 40.6529 214.458 40.1028 214.838 39.6643C215.217 39.2001 215.726 38.968 216.373 38.968ZM216.39 39.544C215.994 39.544 215.675 39.6729 215.433 39.9308C215.192 40.1887 215.054 40.5326 215.01 40.971H217.796C217.71 40.0168 217.236 39.544 216.39 39.544Z" fill="#0066CC"/>
<path d="M211.744 38.968C212.296 38.968 212.736 39.097 213.073 39.3549C213.418 39.6214 213.625 40.0254 213.702 40.567H213.021C212.96 40.2231 212.822 39.9652 212.607 39.7933C212.383 39.6214 212.098 39.544 211.744 39.544C211.313 39.544 210.968 39.7073 210.718 40.034C210.476 40.3521 210.356 40.7819 210.356 41.3235C210.356 41.865 210.468 42.2949 210.709 42.6043C210.942 42.9138 211.287 43.0771 211.736 43.0771C212.495 43.0771 212.935 42.6903 213.038 41.9252H213.728C213.625 42.4926 213.409 42.931 213.064 43.2233C212.728 43.507 212.288 43.6531 211.736 43.6531C211.063 43.6531 210.545 43.4296 210.175 42.9826C209.821 42.5614 209.648 42.0112 209.648 41.3321C209.648 40.6529 209.821 40.1028 210.175 39.6729C210.554 39.2001 211.08 38.968 211.744 38.968Z" fill="#0066CC"/>
<path d="M207.026 38.968C207.578 38.968 208.017 39.097 208.354 39.3549C208.699 39.6214 208.906 40.0254 208.983 40.567H208.302C208.242 40.2231 208.104 39.9652 207.888 39.7933C207.664 39.6214 207.379 39.544 207.026 39.544C206.594 39.544 206.249 39.7073 205.999 40.034C205.758 40.3521 205.637 40.7819 205.637 41.3235C205.637 41.865 205.749 42.2949 205.991 42.6043C206.223 42.9138 206.568 43.0771 207.017 43.0771C207.776 43.0771 208.216 42.6903 208.319 41.9252H209.009C208.906 42.4926 208.69 42.931 208.345 43.2233C208.009 43.507 207.569 43.6531 207.017 43.6531C206.344 43.6531 205.827 43.4296 205.456 42.9826C205.102 42.5614 204.93 42.0112 204.93 41.3321C204.93 40.6529 205.102 40.1028 205.456 39.6729C205.835 39.2001 206.361 38.968 207.026 38.968Z" fill="#0066CC"/>
<path d="M201.322 37.3975H202.141L204.565 43.5354H203.797L203.142 41.8161H200.313L199.657 43.5354H198.898L201.322 37.3975ZM200.537 41.2229H202.918L201.753 38.154H201.719L200.537 41.2229Z" fill="#0066CC"/>
<path d="M194.893 42.511C195.083 42.511 195.247 42.5884 195.368 42.7517C195.48 42.9064 195.54 43.1041 195.54 43.3534C195.54 43.7317 195.428 44.067 195.204 44.3592C194.979 44.6343 194.678 44.8234 194.307 44.918V44.4968C194.531 44.4194 194.721 44.2905 194.859 44.1185C194.979 43.938 195.048 43.7489 195.048 43.5426C195.005 43.5598 194.945 43.577 194.859 43.577C194.712 43.577 194.591 43.5254 194.488 43.4222C194.384 43.3191 194.333 43.1901 194.333 43.044C194.333 42.8806 194.384 42.7517 194.496 42.6571C194.591 42.554 194.721 42.511 194.893 42.511Z" fill="#0066CC"/>
<path d="M192.412 37.6533V39.0889H193.516V39.6649H192.412V42.4931C192.412 42.6565 192.438 42.7768 192.507 42.8456C192.568 42.9144 192.68 42.9574 192.835 42.9574H193.404V43.5333H192.731C192.369 43.5333 192.102 43.4388 191.947 43.2496C191.8 43.0777 191.731 42.8284 191.731 42.4931V39.6649H190.834V39.0889H191.731V37.937L192.412 37.6533Z" fill="#0066CC"/>
<path d="M190.03 38.968C190.272 38.968 190.479 39.0024 190.643 39.0712V39.7589C190.418 39.6901 190.194 39.6643 189.978 39.6643C189.633 39.6643 189.34 39.8105 189.107 40.1199C188.866 40.4122 188.754 40.7647 188.754 41.1773V43.5328H188.072V39.0884H188.754V39.8621C188.874 39.6042 189.03 39.3978 189.219 39.2517C189.452 39.0626 189.72 38.968 190.03 38.968Z" fill="#0066CC"/>
<path d="M185.193 38.968C185.831 38.968 186.297 39.1314 186.608 39.4666C186.866 39.7589 187.004 40.1629 187.004 40.6787V43.5328H186.358V42.7849C186.185 43.0256 185.952 43.2233 185.676 43.378C185.348 43.5585 184.978 43.6531 184.564 43.6531C184.115 43.6531 183.761 43.5414 183.494 43.3178C183.218 43.0857 183.08 42.7849 183.08 42.4238C183.08 41.9166 183.278 41.5384 183.692 41.2805C184.055 41.0398 184.572 40.9108 185.245 40.9022L186.314 40.885V40.6529C186.314 39.905 185.926 39.5354 185.15 39.5354C184.822 39.5354 184.555 39.5956 184.348 39.7331C184.115 39.8706 183.968 40.0856 183.899 40.3692L183.218 40.3177C183.313 39.8535 183.546 39.501 183.908 39.2775C184.236 39.0712 184.658 38.968 185.193 38.968ZM186.314 41.4008L185.288 41.418C184.288 41.4352 183.787 41.7619 183.787 42.4066C183.787 42.6129 183.865 42.7763 184.037 42.9138C184.21 43.0428 184.434 43.1115 184.71 43.1115C185.133 43.1115 185.504 42.974 185.831 42.6989C186.151 42.4324 186.314 42.1229 186.314 41.7791V41.4008Z" fill="#0066CC"/>
<path d="M177.824 38.968C178.506 38.968 178.971 39.2431 179.222 39.8105C179.394 39.5182 179.601 39.3033 179.843 39.1743C180.058 39.0368 180.317 38.968 180.627 38.968C181.093 38.968 181.464 39.1142 181.757 39.4064C182.033 39.7073 182.18 40.1114 182.18 40.6185V43.5328H181.49V40.7303C181.49 40.3349 181.404 40.0426 181.24 39.8535C181.067 39.6471 180.791 39.5526 180.412 39.5526C180.119 39.5526 179.868 39.6557 179.679 39.8792C179.472 40.1028 179.377 40.3864 179.377 40.7475V43.5328H178.687V40.7303C178.687 39.9394 178.342 39.5526 177.66 39.5526C177.341 39.5526 177.083 39.6729 176.876 39.9308C176.669 40.1715 176.565 40.4724 176.565 40.8249V43.5328H175.875V39.0884H176.565V39.6815C176.901 39.2001 177.324 38.968 177.824 38.968Z" fill="#0066CC"/>
<path d="M172.583 37.2754C173.273 37.2754 173.825 37.4301 174.222 37.7482C174.636 38.0749 174.869 38.5649 174.929 39.2096H174.23C174.153 38.7626 173.98 38.4359 173.713 38.221C173.437 37.9975 173.049 37.8943 172.548 37.8943C172.091 37.8943 171.738 37.9631 171.479 38.1178C171.186 38.2898 171.039 38.5477 171.039 38.9001C171.039 39.2096 171.212 39.4589 171.565 39.648C171.72 39.734 172.1 39.8629 172.695 40.0349C173.506 40.2756 174.041 40.4733 174.299 40.628C174.808 40.9375 175.067 41.3673 175.067 41.9261C175.067 42.4591 174.851 42.8889 174.42 43.1984C173.989 43.4993 173.411 43.654 172.678 43.654C171.953 43.654 171.384 43.4993 170.97 43.1898C170.487 42.8201 170.22 42.2614 170.168 41.5049H170.867C170.927 42.0379 171.117 42.4333 171.427 42.6826C171.712 42.9061 172.126 43.0264 172.678 43.0264C173.178 43.0264 173.592 42.9319 173.903 42.7428C174.213 42.5536 174.368 42.2957 174.368 41.9691C174.368 41.5822 174.161 41.2814 173.756 41.0664C173.583 40.9633 173.144 40.8171 172.454 40.6194C171.712 40.3959 171.237 40.224 171.039 40.1208C170.565 39.8457 170.332 39.4503 170.332 38.9345C170.332 38.4015 170.556 37.9803 171.013 37.688C171.419 37.4129 171.945 37.2754 172.583 37.2754Z" fill="#0066CC"/>
<path d="M166.362 38.968C166.604 38.968 166.811 39.0024 166.975 39.0712V39.7589C166.75 39.6901 166.526 39.6643 166.31 39.6643C165.965 39.6643 165.672 39.8105 165.439 40.1199C165.198 40.4122 165.086 40.7647 165.086 41.1773V43.5328H164.404V39.0884H165.086V39.8621C165.206 39.6042 165.362 39.3978 165.551 39.2517C165.784 39.0626 166.052 38.968 166.362 38.968Z" fill="#0066CC"/>
<path d="M161.341 38.968C162.005 38.968 162.54 39.1915 162.936 39.6557C163.316 40.0942 163.506 40.6443 163.506 41.3149C163.506 41.9768 163.316 42.527 162.945 42.9568C162.54 43.421 162.005 43.6531 161.341 43.6531C160.668 43.6531 160.142 43.421 159.745 42.9568C159.366 42.527 159.176 41.9768 159.176 41.3149C159.176 40.6443 159.366 40.0942 159.745 39.6557C160.142 39.1915 160.668 38.968 161.341 38.968ZM161.341 39.544C160.866 39.544 160.495 39.7245 160.237 40.0856C159.995 40.4122 159.883 40.8163 159.883 41.3149C159.883 41.8049 159.995 42.2089 160.237 42.5356C160.495 42.8966 160.866 43.0771 161.341 43.0771C161.806 43.0771 162.177 42.8966 162.453 42.5356C162.686 42.2089 162.807 41.7963 162.807 41.3149C162.807 40.8163 162.686 40.4122 162.453 40.0856C162.177 39.7245 161.806 39.544 161.341 39.544Z" fill="#0066CC"/>
<path d="M154.457 37.3975H158.58V38.0078H155.164V40.071H158.399V40.6813H155.164V43.5354H154.457V37.3975Z" fill="#0066CC"/>
</svg>
