<svg xmlns="http://www.w3.org/2000/svg" width="203" height="64" viewBox="0 0 203 64">
    <g fill="none" fill-rule="evenodd">
        <g>
            <g>
                <g>
                    <g transform="translate(-250.000000, -8315.000000) translate(0.000000, 8186.000000) translate(250.000000, 129.000000)">
                        <circle cx="32" cy="32" r="32" fill="#02AE9D"/>
                        <path fill="#FFF" fill-rule="nonzero" d="M31.908 45.287l-.007-.001c-.178-.016-.322-.154-.346-.334l-.002-.017L30.25 30.08l-1.048 13.954c-.016.213-.178.384-.386.41l-.017.002c-.239.021-.45-.152-.48-.39v-.016l-1.363-15.623-.873 12.74c-.015.208-.169.378-.371.411l-.018.003c-.238.029-.455-.137-.492-.374l-.002-.016-1.275-10.58-1.022 6.854c-.028.19-.172.34-.358.374l-.018.003c-.237.034-.457-.128-.499-.363l-.003-.017-1.191-8.411-1.096 6.447c-.031.185-.174.33-.355.365l-.018.003c-.237.035-.457-.126-.5-.362l-.003-.017-.955-6.6-1.09 8.094c-.026.193-.172.346-.361.38l-.018.003c-.237.033-.456-.13-.497-.366l-.003-.017-1.142-8.416-1.116 6.1c-.032.177-.167.317-.341.355l-.018.004c-.236.042-.461-.112-.51-.347l-.004-.016-1.049-6.01-.992 4.924c-.032.16-.148.29-.302.338l-.017.005c-.231.063-.469-.07-.539-.3l-.005-.016-1.136-4.253-1.042 4.352c-.029.12-.106.224-.212.284l-.018.01c-.213.11-.473.028-.588-.18l-.008-.016-1.474-2.925-1.103 1.792c-.104.17-.323.225-.494.129l-.015-.01c-.168-.105-.223-.325-.128-.498l.01-.015 1.379-2.24c.13-.21.403-.275.61-.145.063.04.115.094.152.158l.01.02 1.349 2.676 1.125-4.702c.057-.235.287-.381.52-.334l.016.004c.151.037.272.151.319.3l.005.018 1.111 4.161 1.054-5.228c.047-.236.272-.391.506-.352l.017.003c.172.035.307.17.345.343l.003.018 1.035 5.93 1.153-6.298c.043-.238.265-.397.5-.362l.016.003c.183.034.324.178.356.36l.003.02 1.098 8.087 1.08-8.023c.032-.24.247-.408.483-.385l.016.002c.19.026.342.172.377.361l.003.018.988 6.834 1.1-6.465c.04-.238.26-.4.495-.368l.016.002c.184.032.328.176.361.36l.003.018 1.173 8.276 1.045-7.012c.036-.24.252-.405.488-.379l.017.003c.19.029.34.179.372.37l.002.018 1.163 9.651.92-13.406c.016-.24.218-.423.457-.417l.017.001c.211.016.381.18.408.39l.002.018 1.375 15.775 1.047-13.943c.019-.24.222-.422.46-.413l.016.001c.21.016.38.18.407.39l.002.017 1.251 14.273 1.252-14.273c.019-.212.183-.381.39-.405l.018-.002c.239-.018.448.158.475.396l.001.016 1.047 13.943 1.376-15.775c.018-.213.183-.382.395-.406l.018-.002c.238-.016.445.161.47.4l.001.016.92 13.406 1.162-9.65c.024-.194.169-.35.357-.386l.018-.003c.237-.036.458.124.502.36l.002.016 1.046 7.013 1.172-8.277c.027-.186.165-.335.347-.374l.017-.004c.236-.04.46.115.51.35l.003.016 1.098 6.465.989-6.834c.028-.192.174-.343.361-.376l.018-.003c.237-.032.456.13.497.367l.002.016 1.08 8.023 1.098-8.088c.025-.185.162-.334.341-.375l.018-.004c.236-.044.462.108.514.342l.003.017 1.153 6.298 1.034-5.93c.03-.175.161-.315.331-.357l.018-.004c.234-.048.463.1.52.333l.003.016 1.053 5.228 1.112-4.16c.04-.152.157-.271.306-.314l.018-.005c.232-.057.467.083.53.314l.005.016 1.126 4.702 1.349-2.677c.033-.066.082-.123.142-.165l.019-.012c.203-.127.468-.069.601.129l.01.015 1.38 2.241c.107.175.054.405-.12.514-.168.105-.388.058-.5-.106l-.009-.014-1.102-1.792-1.474 2.925c-.108.215-.365.304-.58.204l-.016-.008c-.11-.056-.191-.155-.225-.274l-.006-.02-1.042-4.352-1.136 4.253c-.062.233-.296.374-.527.32l-.017-.004c-.156-.043-.277-.168-.315-.325l-.004-.018-.992-4.924-1.048 6.01c-.042.238-.263.399-.498.366l-.016-.003c-.176-.031-.316-.166-.356-.341l-.003-.018-1.117-6.1-1.142 8.416c-.032.24-.247.409-.483.385l-.016-.002c-.192-.027-.343-.175-.377-.365l-.003-.018-1.09-8.093-.954 6.6c-.035.238-.25.406-.487.38l-.016-.002c-.185-.027-.332-.167-.37-.35l-.004-.018-1.095-6.447-1.192 8.411c-.034.24-.25.407-.485.382l-.017-.002c-.188-.027-.337-.172-.373-.359l-.003-.018-1.021-6.854-1.275 10.58c-.03.24-.241.412-.478.392l-.016-.002c-.205-.025-.365-.19-.388-.395l-.001-.019-.874-12.74-1.362 15.623c-.02.24-.227.42-.464.407h-.016c-.21-.02-.378-.185-.402-.395l-.002-.018-1.048-13.954-1.303 14.855c-.016.188-.164.335-.347.351h-.008v.001h-.026z"/>
                    </g>
                    <path fill="#E0E0E0" fill-rule="nonzero" d="M88.991 41.452V27.04h5.344v-3.043H80v3.043h5.344v14.412h3.647zm11.46 0v-7.568c.005-.563.114-1.045.328-1.445.213-.4.508-.706.886-.916.378-.21.814-.316 1.308-.316.739 0 1.314.225 1.726.674.412.449.615 1.076.61 1.883v7.688h3.63v-8.336c.006-1.022-.18-1.902-.558-2.637-.378-.736-.906-1.301-1.585-1.696-.68-.395-1.473-.593-2.383-.593-.994 0-1.82.22-2.48.66-.659.441-1.136 1.048-1.431 1.82h-.154v-6.673H96.82v17.455h3.63zm13.36-14.779c.54 0 1.002-.18 1.386-.54.383-.362.575-.795.575-1.3 0-.5-.192-.931-.575-1.292-.384-.36-.848-.541-1.394-.541-.534 0-.994.18-1.38.541-.387.361-.58.791-.58 1.291 0 .506.193.94.58 1.3.386.36.849.541 1.389.541zm1.799 14.779V28.36h-3.63v13.09h3.63zm6.712 0v-7.568c.005-.563.112-1.045.32-1.445.207-.4.496-.706.869-.916.372-.21.802-.316 1.29-.316.728 0 1.3.226 1.714.678.415.452.62 1.078.614 1.88v7.687h3.63v-8.336c0-1.017-.187-1.893-.562-2.629-.375-.736-.9-1.302-1.577-1.7-.676-.398-1.469-.597-2.378-.597-.971 0-1.798.223-2.48.67-.682.445-1.168 1.05-1.457 1.81h-.154v-2.31h-3.46v13.092h3.63zm15.105-17.455h-3.631v17.455h3.63v-4.155l.984-1.124 3.568 5.279h4.253l-5.103-7.42 4.856-5.671h-4.168l-4.193 4.969h-.197v-9.333zm16.582 17.753c1.262 0 2.344-.217 3.248-.652.903-.435 1.596-1.024 2.08-1.768.482-.745.724-1.583.724-2.515 0-.727-.141-1.35-.422-1.87s-.654-.96-1.117-1.321c-.463-.361-.973-.66-1.53-.9-.556-.238-1.113-.434-1.67-.588l-1.84-.528c-.421-.12-.838-.267-1.25-.443-.411-.176-.786-.388-1.124-.635-.339-.247-.607-.544-.806-.89-.199-.347-.298-.75-.298-1.211 0-.625.175-1.183.524-1.675.35-.491.832-.876 1.449-1.155.616-.278 1.33-.417 2.143-.417 1.154 0 2.111.287 2.872.86.762.574 1.19 1.347 1.287 2.319h1.543c-.034-.887-.297-1.678-.788-2.374-.492-.696-1.155-1.243-1.99-1.64-.836-.398-1.796-.597-2.881-.597-1.074 0-2.041.2-2.902.6-.86.401-1.543.958-2.046 1.671-.502.713-.754 1.539-.754 2.476 0 1.12.378 2.04 1.134 2.762.755.721 1.818 1.286 3.187 1.696l2.088.613c.722.21 1.357.452 1.905.725.548.272.976.609 1.283 1.01.307.4.46.896.46 1.487 0 .699-.195 1.31-.584 1.836-.389.526-.923.935-1.602 1.228-.679.292-1.453.439-2.323.439-.784 0-1.494-.124-2.13-.371-.637-.247-1.154-.61-1.551-1.087-.398-.477-.625-1.06-.682-1.747h-1.637c.063.92.344 1.73.844 2.429.5.699 1.188 1.246 2.063 1.64.875.396 1.906.593 3.093.593zm14.848-.026c1.13 0 2.13-.286 2.996-.86.866-.574 1.544-1.368 2.033-2.382.488-1.015.732-2.187.732-3.516 0-1.341-.245-2.52-.737-3.537-.491-1.017-1.169-1.813-2.032-2.386-.864-.574-1.861-.861-2.992-.861-1.13 0-2.13.285-2.996.856-.866.571-1.544 1.367-2.032 2.387-.489 1.02-.733 2.2-.733 3.54 0 1.33.244 2.502.733 3.517.488 1.014 1.166 1.808 2.032 2.382.867.574 1.865.86 2.996.86zm0-1.389c-.909 0-1.679-.244-2.31-.733-.63-.488-1.109-1.139-1.436-1.951-.326-.813-.49-1.708-.49-2.685 0-.977.164-1.875.49-2.693.327-.818.807-1.475 1.44-1.969.634-.494 1.403-.741 2.306-.741.91 0 1.68.247 2.31.741.63.494 1.11 1.15 1.436 1.969.327.818.49 1.716.49 2.693 0 .977-.163 1.872-.49 2.685-.327.812-.806 1.463-1.436 1.951-.63.489-1.4.733-2.31.733zm10.79 1.117V33.27c0-.761.156-1.42.465-1.973.31-.554.732-.979 1.266-1.274.534-.296 1.145-.443 1.832-.443 1.006 0 1.809.312 2.408.937.6.625.9 1.474.9 2.548v8.387h1.516v-8.48c0-1.035-.186-1.907-.558-2.617-.372-.71-.892-1.248-1.56-1.615-.667-.366-1.441-.55-2.322-.55-.96 0-1.766.203-2.416.61-.65.406-1.13.944-1.436 1.615h-.137V28.36h-1.474v13.09h1.517zm17.661.272c1.13 0 2.13-.286 2.996-.86.866-.574 1.544-1.368 2.032-2.382.49-1.015.733-2.187.733-3.516 0-1.341-.245-2.52-.737-3.537-.491-1.017-1.169-1.813-2.032-2.386-.864-.574-1.861-.861-2.992-.861-1.13 0-2.13.285-2.996.856-.866.571-1.544 1.367-2.032 2.387-.489 1.02-.733 2.2-.733 3.54 0 1.33.244 2.502.733 3.517.488 1.014 1.166 1.808 2.032 2.382.867.574 1.865.86 2.996.86zm0-1.389c-.909 0-1.679-.244-2.31-.733-.63-.488-1.109-1.139-1.436-1.951-.326-.813-.49-1.708-.49-2.685 0-.977.164-1.875.49-2.693.327-.818.807-1.475 1.44-1.969.634-.494 1.403-.741 2.306-.741.91 0 1.679.247 2.31.741.63.494 1.11 1.15 1.436 1.969.326.818.49 1.716.49 2.693 0 .977-.164 1.872-.49 2.685-.327.812-.806 1.463-1.436 1.951-.631.489-1.4.733-2.31.733z" transform="translate(-250.000000, -8315.000000) translate(0.000000, 8186.000000) translate(250.000000, 129.000000)"/>
                </g>
            </g>
        </g>
    </g>
</svg>
